<svg width="111" height="111" viewBox="0 0 111 111" fill="none" xmlns="http://www.w3.org/2000/svg">
<rect width="111" height="111" rx="55.5" fill="#E9F4FF"/>
<path d="M28.624 35.312L17.92 41.264V31.52L33.424 22.64H38.752V86H28.624V35.312ZM48.832 54.368C48.832 48.768 49.504 43.904 50.848 39.776C52.224 35.648 54.08 32.24 56.416 29.552C58.752 26.832 61.376 24.816 64.288 23.504C67.2 22.16 70.208 21.488 73.312 21.488C76.448 21.488 79.472 22.16 82.384 23.504C85.328 24.816 87.952 26.832 90.256 29.552C92.56 32.24 94.384 35.648 95.728 39.776C97.072 43.904 97.744 48.768 97.744 54.368C97.744 60.16 97.072 65.12 95.728 69.248C94.384 73.376 92.56 76.768 90.256 79.424C87.952 82.048 85.328 84 82.384 85.28C79.472 86.528 76.448 87.152 73.312 87.152C70.208 87.152 67.2 86.528 64.288 85.28C61.376 84 58.752 82.048 56.416 79.424C54.08 76.768 52.224 73.376 50.848 69.248C49.504 65.12 48.832 60.16 48.832 54.368ZM59.056 54.368C59.056 59.68 59.68 64.112 60.928 67.664C62.208 71.184 63.92 73.808 66.064 75.536C68.24 77.232 70.656 78.08 73.312 78.08C76.032 78.08 78.448 77.216 80.56 75.488C82.704 73.76 84.4 71.136 85.648 67.616C86.896 64.096 87.52 59.68 87.52 54.368C87.52 49.152 86.896 44.784 85.648 41.264C84.4 37.744 82.704 35.088 80.56 33.296C78.448 31.472 76.032 30.56 73.312 30.56C70.656 30.56 68.24 31.472 66.064 33.296C63.92 35.088 62.208 37.76 60.928 41.312C59.68 44.832 59.056 49.184 59.056 54.368Z" fill="#C69862"/>
</svg>
