<svg width="111" height="111" viewBox="0 0 111 111" fill="none" xmlns="http://www.w3.org/2000/svg">
<rect width="111" height="111" rx="55.5" fill="#E9F4FF"/>
<path d="M57.064 30.272C54.6 30.272 52.424 30.8 50.536 31.856C48.68 32.88 47.128 34.096 45.88 35.504C44.632 36.912 43.672 38.192 43 39.344C42.36 40.496 42.008 41.136 41.944 41.264L33.16 37.328C33.224 37.04 33.528 36.32 34.072 35.168C34.616 33.984 35.464 32.64 36.616 31.136C37.768 29.6 39.256 28.096 41.08 26.624C42.936 25.152 45.176 23.936 47.8 22.976C50.456 21.984 53.544 21.488 57.064 21.488C60.872 21.488 64.104 22.016 66.76 23.072C69.416 24.128 71.576 25.584 73.24 27.44C74.904 29.264 76.12 31.36 76.888 33.728C77.656 36.096 78.04 38.592 78.04 41.216C78.04 43.904 77.416 46.624 76.168 49.376C74.952 52.128 73.368 54.8 71.416 57.392C69.464 59.952 67.368 62.352 65.128 64.592C62.888 66.832 60.712 68.832 58.6 70.592C56.52 72.352 54.728 73.792 53.224 74.912C51.752 76.032 50.824 76.736 50.44 77.024H77.512V86H34.888V77.84C35.72 77.168 37.08 76.096 38.968 74.624C40.888 73.152 43.096 71.408 45.592 69.392C48.088 67.344 50.616 65.12 53.176 62.72C55.768 60.32 58.168 57.856 60.376 55.328C62.616 52.8 64.408 50.32 65.752 47.888C67.128 45.456 67.816 43.184 67.816 41.072C67.816 37.104 66.888 34.32 65.032 32.72C63.176 31.088 60.52 30.272 57.064 30.272Z" fill="#C69862"/>
</svg>
