<svg width="111" height="111" viewBox="0 0 111 111" fill="none" xmlns="http://www.w3.org/2000/svg">
<rect width="111" height="111" rx="55.5" fill="#E9F4FF"/>
<path d="M36.08 33.536C36.304 32.608 36.864 31.472 37.76 30.128C38.688 28.784 39.952 27.456 41.552 26.144C43.152 24.832 45.152 23.728 47.552 22.832C49.984 21.936 52.816 21.488 56.048 21.488C60.08 21.488 63.568 22.24 66.512 23.744C69.488 25.216 71.776 27.248 73.376 29.84C74.976 32.432 75.776 35.392 75.776 38.72C75.776 41.056 75.312 43.184 74.384 45.104C73.488 47.024 72.32 48.608 70.88 49.856C69.472 51.072 67.968 51.84 66.368 52.16C68.096 52.352 69.84 53.072 71.6 54.32C73.392 55.536 74.88 57.232 76.064 59.408C77.28 61.552 77.888 64.096 77.888 67.04C77.888 70.88 76.944 74.32 75.056 77.36C73.2 80.4 70.608 82.8 67.28 84.56C63.984 86.288 60.176 87.152 55.856 87.152C51.536 87.152 47.856 86.416 44.816 84.944C41.776 83.44 39.344 81.6 37.52 79.424C35.728 77.248 34.512 75.152 33.872 73.136L43.136 68.48C43.584 69.856 44.336 71.312 45.392 72.848C46.48 74.352 47.888 75.632 49.616 76.688C51.376 77.744 53.424 78.272 55.76 78.272C58.32 78.272 60.496 77.76 62.288 76.736C64.08 75.712 65.44 74.336 66.368 72.608C67.296 70.88 67.76 68.944 67.76 66.8C67.76 64.432 67.2 62.496 66.08 60.992C64.96 59.488 63.488 58.368 61.664 57.632C59.872 56.896 57.904 56.528 55.76 56.528H54.512V49.04H56.144C58 49.04 59.712 48.656 61.28 47.888C62.88 47.12 64.16 46.016 65.12 44.576C66.08 43.136 66.56 41.408 66.56 39.392C66.56 36.736 65.664 34.48 63.872 32.624C62.112 30.768 59.456 29.84 55.904 29.84C53.92 29.84 52.208 30.16 50.768 30.8C49.36 31.408 48.208 32.16 47.312 33.056C46.416 33.92 45.744 34.768 45.296 35.6C44.848 36.432 44.576 37.056 44.48 37.472L36.08 33.536Z" fill="#C69862"/>
</svg>
