<svg width="111" height="111" viewBox="0 0 111 111" fill="none" xmlns="http://www.w3.org/2000/svg">
<rect width="111" height="111" rx="55.5" fill="#E9F4FF"/>
<path d="M42 70.832C42.224 71.504 42.608 72.272 43.152 73.136C43.696 74 44.432 74.848 45.36 75.68C46.288 76.48 47.44 77.152 48.816 77.696C50.192 78.24 51.84 78.512 53.76 78.512C57.6 78.512 60.608 77.28 62.784 74.816C64.96 72.32 66.032 69.056 66 65.024C65.968 61.216 64.96 58.288 62.976 56.24C60.992 54.16 58.336 53.12 55.008 53.12C52.928 53.12 51.104 53.488 49.536 54.224C48 54.96 46.752 55.856 45.792 56.912C44.832 57.968 44.16 58.944 43.776 59.84L35.136 56.816L40.608 22.64H73.392V31.616H49.248L46.56 48.944C46.72 48.656 47.248 48.192 48.144 47.552C49.072 46.88 50.336 46.256 51.936 45.68C53.568 45.072 55.52 44.768 57.792 44.768C60.96 44.768 63.936 45.488 66.72 46.928C69.504 48.336 71.776 50.496 73.536 53.408C75.296 56.288 76.176 59.984 76.176 64.496C76.208 69.008 75.312 72.96 73.488 76.352C71.696 79.744 69.136 82.4 65.808 84.32C62.512 86.208 58.608 87.152 54.096 87.152C50.768 87.152 47.888 86.736 45.456 85.904C43.024 85.04 40.976 83.968 39.312 82.688C37.648 81.408 36.32 80.08 35.328 78.704C34.336 77.296 33.632 76.048 33.216 74.96L42 70.832Z" fill="#C69862"/>
</svg>
