<svg width="111" height="111" viewBox="0 0 111 111" fill="none" xmlns="http://www.w3.org/2000/svg">
<rect width="111" height="111" rx="55.5" fill="#E9F4FF"/>
<path d="M57.224 44.432C60.712 44.432 63.976 45.312 67.016 47.072C70.088 48.8 72.584 51.248 74.504 54.416C76.424 57.584 77.384 61.264 77.384 65.456C77.384 69.648 76.36 73.376 74.312 76.64C72.264 79.904 69.512 82.48 66.056 84.368C62.632 86.224 58.856 87.152 54.728 87.152C50.504 87.152 46.68 86.24 43.256 84.416C39.864 82.592 37.16 80 35.144 76.64C33.128 73.28 32.12 69.328 32.12 64.784C32.12 59.952 32.936 55.872 34.568 52.544C36.2 49.184 38.104 46.16 40.28 43.472L57.08 22.64H69.032L48.584 47.168C49.192 46.528 50.232 45.92 51.704 45.344C53.176 44.736 55.016 44.432 57.224 44.432ZM54.824 78.704C57.192 78.704 59.352 78.128 61.304 76.976C63.288 75.792 64.856 74.224 66.008 72.272C67.192 70.288 67.784 68.096 67.784 65.696C67.784 63.296 67.192 61.12 66.008 59.168C64.856 57.184 63.288 55.616 61.304 54.464C59.352 53.312 57.192 52.736 54.824 52.736C52.424 52.736 50.232 53.312 48.248 54.464C46.264 55.616 44.68 57.184 43.496 59.168C42.344 61.12 41.768 63.296 41.768 65.696C41.768 68.096 42.344 70.288 43.496 72.272C44.68 74.224 46.264 75.792 48.248 76.976C50.232 78.128 52.424 78.704 54.824 78.704Z" fill="#C69862"/>
</svg>
