<svg width="111" height="111" viewBox="0 0 111 111" fill="none" xmlns="http://www.w3.org/2000/svg">
<rect width="111" height="111" rx="55.5" fill="#E9F4FF"/>
<path d="M55.776 88.152C51.744 88.152 48.096 87.336 44.832 85.704C41.568 84.072 38.96 81.864 37.008 79.08C35.088 76.264 34.128 73.096 34.128 69.576C34.128 66.472 34.656 63.848 35.712 61.704C36.768 59.528 38.176 57.72 39.936 56.28C41.728 54.808 43.696 53.656 45.84 52.824C44.272 52.056 42.8 51.08 41.424 49.896C40.08 48.68 38.976 47.176 38.112 45.384C37.28 43.56 36.864 41.368 36.864 38.808C36.864 35.544 37.696 32.696 39.36 30.264C41.056 27.8 43.328 25.896 46.176 24.552C49.056 23.176 52.24 22.488 55.728 22.488C59.248 22.488 62.416 23.176 65.232 24.552C68.048 25.896 70.272 27.8 71.904 30.264C73.568 32.696 74.4 35.544 74.4 38.808C74.4 42.648 73.536 45.64 71.808 47.784C70.08 49.928 68 51.608 65.568 52.824C67.712 53.656 69.664 54.808 71.424 56.28C73.216 57.72 74.64 59.528 75.696 61.704C76.784 63.848 77.328 66.472 77.328 69.576C77.328 73.096 76.368 76.264 74.448 79.08C72.528 81.864 69.936 84.072 66.672 85.704C63.44 87.336 59.808 88.152 55.776 88.152ZM55.728 79.176C57.776 79.176 59.616 78.712 61.248 77.784C62.912 76.824 64.24 75.528 65.232 73.896C66.224 72.232 66.72 70.392 66.72 68.376C66.72 66.328 66.224 64.488 65.232 62.856C64.24 61.224 62.912 59.928 61.248 58.968C59.616 58.008 57.776 57.528 55.728 57.528C53.68 57.528 51.808 58.008 50.112 58.968C48.448 59.928 47.12 61.224 46.128 62.856C45.168 64.488 44.688 66.328 44.688 68.376C44.688 70.392 45.168 72.216 46.128 73.848C47.12 75.48 48.448 76.776 50.112 77.736C51.808 78.696 53.68 79.176 55.728 79.176ZM55.776 49.512C57.504 49.512 59.072 49.08 60.48 48.216C61.92 47.352 63.056 46.2 63.888 44.76C64.752 43.32 65.184 41.736 65.184 40.008C65.184 38.28 64.752 36.712 63.888 35.304C63.024 33.864 61.872 32.728 60.432 31.896C59.024 31.032 57.456 30.6 55.728 30.6C54.032 30.6 52.448 31.032 50.976 31.896C49.536 32.728 48.384 33.864 47.52 35.304C46.688 36.712 46.272 38.28 46.272 40.008C46.272 41.736 46.688 43.32 47.52 44.76C48.384 46.2 49.536 47.352 50.976 48.216C52.448 49.08 54.048 49.512 55.776 49.512Z" fill="#C69862"/>
</svg>
