<svg width="111" height="111" viewBox="0 0 111 111" fill="none" xmlns="http://www.w3.org/2000/svg">
<rect width="111" height="111" rx="55.5" fill="#E9F4FF"/>
<path d="M42.616 86L63.064 61.472C62.456 62.112 61.416 62.736 59.944 63.344C58.472 63.92 56.632 64.208 54.424 64.208C50.968 64.208 47.688 63.344 44.584 61.616C41.512 59.856 39.016 57.392 37.096 54.224C35.208 51.056 34.264 47.376 34.264 43.184C34.264 38.992 35.288 35.264 37.336 32C39.384 28.736 42.12 26.176 45.544 24.32C48.968 22.432 52.76 21.488 56.92 21.488C61.144 21.488 64.952 22.4 68.344 24.224C71.768 26.048 74.488 28.64 76.504 32C78.52 35.36 79.528 39.312 79.528 43.856C79.528 48.688 78.712 52.784 77.08 56.144C75.448 59.472 73.544 62.48 71.368 65.168L54.568 86H42.616ZM56.824 55.904C59.224 55.904 61.4 55.328 63.352 54.176C65.336 53.024 66.92 51.456 68.104 49.472C69.288 47.488 69.88 45.312 69.88 42.944C69.88 40.544 69.288 38.368 68.104 36.416C66.92 34.432 65.336 32.864 63.352 31.712C61.4 30.528 59.224 29.936 56.824 29.936C54.456 29.936 52.28 30.528 50.296 31.712C48.344 32.864 46.776 34.432 45.592 36.416C44.44 38.368 43.864 40.544 43.864 42.944C43.864 45.312 44.44 47.488 45.592 49.472C46.776 51.456 48.344 53.024 50.296 54.176C52.28 55.328 54.456 55.904 56.824 55.904Z" fill="#C69862"/>
</svg>
