<svg width="168" height="51" viewBox="0 0 168 51" fill="none" xmlns="http://www.w3.org/2000/svg">
<g clip-path="url(#clip0_177_4924)">
<path fill-rule="evenodd" clip-rule="evenodd" d="M103.822 39.8607C94.1319 46.9659 80.0887 50.7675 67.9802 50.7675C51.0184 50.7675 35.7577 44.5256 24.1996 34.1334C23.299 33.32 24.0996 32.2077 25.2003 32.8386C37.659 40.0599 53.0865 44.3928 68.9976 44.3928C79.7385 44.3928 91.5467 42.1848 102.404 37.5864C104.055 36.9058 105.423 38.6655 103.822 39.8607Z" fill="#FF9900"/>
<path fill-rule="evenodd" clip-rule="evenodd" d="M107.841 35.2623C106.607 33.6852 99.6524 34.5152 96.5336 34.8804C95.5829 34.9967 95.4328 34.1666 96.3001 33.5856C101.837 29.701 110.927 30.8298 111.994 32.1247C113.062 33.4362 111.711 42.5002 106.507 46.8331C105.707 47.4971 104.939 47.1485 105.306 46.2686C106.474 43.3635 109.092 36.8559 107.841 35.2623Z" fill="#FF9900"/>
<path fill-rule="evenodd" clip-rule="evenodd" d="M96.7505 6.1942V2.4258C96.7505 1.86137 97.1842 1.47955 97.7012 1.47955H114.663C115.213 1.47955 115.647 1.87797 115.647 2.4258V5.66297C115.647 6.2108 115.18 6.90803 114.363 8.03689L105.59 20.5207C108.859 20.4377 112.311 20.9192 115.263 22.5792C115.931 22.9611 116.114 23.5089 116.164 24.0401V28.0575C116.164 28.6053 115.547 29.2528 114.913 28.9208C109.693 26.1982 102.755 25.8994 96.984 28.954C96.4003 29.2694 95.7832 28.6385 95.7832 28.0907V24.2725C95.7832 23.6583 95.7832 22.6124 96.4003 21.6828L106.591 7.14044H97.7346C97.1842 7.14044 96.7505 6.75862 96.7505 6.1942Z" fill="white"/>
<path fill-rule="evenodd" clip-rule="evenodd" d="M34.857 29.7342H29.7034C29.2031 29.701 28.8195 29.3358 28.7861 28.8544V2.49222C28.7861 1.96099 29.2364 1.54597 29.7868 1.54597H34.6069C35.1072 1.56257 35.5075 1.94439 35.5409 2.42581V5.87879H35.6409C36.8918 2.54202 39.2601 0.998138 42.429 0.998138C45.6646 0.998138 47.6827 2.55862 49.1337 5.87879C50.3846 2.54202 53.2199 0.998138 56.2553 0.998138C58.4235 0.998138 60.7918 1.89458 62.2262 3.88669C63.8606 6.1112 63.5271 9.33177 63.5271 12.1539V28.788C63.5271 29.3192 63.0768 29.7342 62.5264 29.7342H57.3728C56.8557 29.701 56.4388 29.286 56.4388 28.788V14.81C56.4388 13.6978 56.5389 10.9254 56.2887 9.86299C55.9051 8.0867 54.7543 7.58868 53.2532 7.58868C52.0024 7.58868 50.7014 8.41872 50.1677 9.74679C49.634 11.0749 49.6841 13.2994 49.6841 14.7934V28.7714C49.6841 29.3026 49.2338 29.7176 48.6834 29.7176H43.5464C43.0294 29.6844 42.6125 29.2694 42.6125 28.7714V14.7934C42.6125 11.8551 43.0961 7.52227 39.4269 7.52227C35.7243 7.52227 35.8577 11.7389 35.8577 14.7934V28.7714C35.8577 29.3026 35.4074 29.7342 34.857 29.7342Z" fill="white"/>
<path fill-rule="evenodd" clip-rule="evenodd" d="M130.274 0.981537C137.93 0.981537 142.082 7.52227 142.082 15.8559C142.082 23.8907 137.496 30.282 130.274 30.282C122.752 30.282 118.666 23.7413 118.666 15.5737C118.649 7.37286 122.802 0.981537 130.274 0.981537ZM130.308 6.37681C126.505 6.37681 126.271 11.5231 126.271 14.7436C126.271 17.9642 126.221 24.8536 130.274 24.8536C134.277 24.8536 134.46 19.3089 134.46 15.9223C134.46 13.6978 134.36 11.0417 133.693 8.93335C133.109 7.09065 131.959 6.37681 130.308 6.37681Z" fill="white"/>
<path fill-rule="evenodd" clip-rule="evenodd" d="M152.005 29.7342H146.869C146.352 29.701 145.935 29.286 145.935 28.788V2.40921C145.985 1.92779 146.402 1.54597 146.935 1.54597H151.722C152.172 1.56257 152.539 1.87798 152.639 2.2764V6.31041H152.739C154.19 2.70803 156.208 0.981537 159.778 0.981537C162.096 0.981537 164.347 1.81158 165.798 4.0859C167.149 6.1942 167.149 9.74679 167.149 12.2867V28.8876C167.099 29.3524 166.666 29.7176 166.149 29.7176H160.978C160.511 29.6844 160.111 29.3358 160.061 28.8876V14.5776C160.061 11.6891 160.395 7.47247 156.826 7.47247C155.575 7.47247 154.407 8.30251 153.84 9.58078C153.106 11.1911 153.023 12.8013 153.023 14.5776V28.7714C153.006 29.3026 152.556 29.7342 152.005 29.7342Z" fill="white"/>
<path fill-rule="evenodd" clip-rule="evenodd" d="M83.2243 17.1342C83.2243 19.1429 83.2743 20.8029 82.257 22.5792C81.4397 24.0235 80.1221 24.92 78.6878 24.92C76.7031 24.92 75.5523 23.4093 75.5523 21.2014C75.5523 16.8187 79.4884 16.0219 83.241 16.0219L83.2243 17.1342ZM88.4279 29.6512C88.0944 29.95 87.594 29.9832 87.2104 29.7674C85.4925 28.3563 85.1923 27.6923 84.2417 26.3476C81.4064 29.2196 79.405 30.0828 75.7357 30.0828C71.3827 30.0828 68.0137 27.4101 68.0137 22.0812C68.0137 17.9144 70.2819 15.0756 73.5175 13.6812C76.3195 12.4527 80.2389 12.2369 83.2243 11.8883V11.2243C83.2243 9.99579 83.3244 8.55151 82.5905 7.50566C81.9734 6.55941 80.7559 6.16099 79.6885 6.16099C77.7205 6.16099 75.9692 7.17364 75.5356 9.24875C75.4522 9.71357 75.102 10.1618 74.635 10.195L69.6315 9.66377C69.2145 9.56417 68.7308 9.23215 68.8643 8.58472C70.0317 2.55861 75.5189 0.732513 80.4223 0.732513C82.9408 0.732513 86.2097 1.39655 88.1944 3.28904C90.7129 5.62976 90.4627 8.73412 90.4627 12.1207V20.1223C90.4627 22.5294 91.4634 23.5919 92.4141 24.8868C92.7476 25.3516 92.8143 25.8994 92.3974 26.248C91.3466 27.1445 89.4787 28.7714 88.4279 29.6512Z" fill="white"/>
<path fill-rule="evenodd" clip-rule="evenodd" d="M15.5602 17.1342C15.5602 19.1429 15.6103 20.8029 14.5929 22.5792C13.7757 24.0235 12.4748 24.92 11.0237 24.92C9.03902 24.92 7.88821 23.4093 7.88821 21.2014C7.88821 16.8187 11.8243 16.0219 15.5602 16.0219V17.1342ZM20.7639 29.6512C20.4303 29.95 19.93 29.9832 19.5464 29.7674C17.8285 28.3563 17.5283 27.6923 16.5776 26.3476C13.7423 29.2196 11.7409 30.0828 8.07167 30.0828C3.73531 30.0828 0.349609 27.4101 0.349609 22.0812C0.349609 17.9144 2.61786 15.0756 5.85346 13.6812C8.65541 12.4527 12.5748 12.2369 15.5602 11.8883V11.2243C15.5602 9.99579 15.6603 8.55151 14.9431 7.50566C14.3094 6.55941 13.1085 6.16099 12.0411 6.16099C10.0731 6.16099 8.32185 7.17364 7.88821 9.24875C7.80482 9.71357 7.45457 10.1618 6.98758 10.195L1.98409 9.66377C1.56713 9.56417 1.10013 9.23215 1.21688 8.58472C2.36769 2.55861 7.85486 0.732513 12.7583 0.732513C15.2767 0.732513 18.5457 1.39655 20.5304 3.28904C23.0488 5.62976 22.7986 8.73412 22.7986 12.1207V20.1223C22.7986 22.5294 23.7993 23.5919 24.75 24.8868C25.0836 25.3516 25.1503 25.8994 24.7333 26.248C23.6826 27.1445 21.8146 28.7714 20.7639 29.6512Z" fill="white"/>
</g>
<defs>
<clipPath id="clip0_177_4924">
<rect width="166.783" height="50.035" fill="white" transform="translate(0.349609 0.732513)"/>
</clipPath>
</defs>
</svg>
