<svg width="407" height="275" viewBox="0 0 407 275" fill="none" xmlns="http://www.w3.org/2000/svg">
<path fill-rule="evenodd" clip-rule="evenodd" d="M154.695 7.81426C158.649 31.1938 178.995 49 203.5 49C228.005 49 248.351 31.1938 252.305 7.81426L252.317 7.81451C252.317 7.78591 252.318 7.75732 252.319 7.72874C252.414 7.16383 252.499 6.59566 252.574 6.02444C252.704 5.53503 252.884 5.05679 253.11 4.59613C253.606 3.58539 254.318 2.68069 255.201 1.93786C256.085 1.19503 257.121 0.62983 258.247 0.27714C258.618 0.160671 258.997 0.0681927 259.38 0H391C399.837 0 407 7.16344 407 16V259C407 267.837 399.837 275 391 275H16C7.16345 275 0 267.837 0 259V16C0 7.16345 7.16344 0 16 0H147.62C148.003 0.0681927 148.382 0.160671 148.753 0.27714C149.879 0.62983 150.915 1.19503 151.799 1.93786C152.682 2.68069 153.394 3.58539 153.89 4.59613C154.116 5.05679 154.296 5.53503 154.426 6.02444C154.501 6.59566 154.586 7.16383 154.681 7.72874C154.682 7.75732 154.683 7.78591 154.683 7.81451L154.695 7.81426Z" fill="#447AAA"/>
</svg>
