<svg width="168" height="32" viewBox="0 0 168 32" fill="none" xmlns="http://www.w3.org/2000/svg">
<g clip-path="url(#clip0_177_4912)">
<path d="M158.002 26.7381C158.002 24.2657 160.018 22.3428 162.401 22.3428C164.875 22.3428 166.799 24.3573 166.799 26.7381C166.799 29.1188 164.783 31.1333 162.401 31.1333C160.018 31.1333 158.002 29.2104 158.002 26.7381Z" fill="#86BC25"/>
<path d="M25.8588 14.9259C25.8588 20.0537 24.5759 23.8995 21.8267 26.6465C19.0775 29.3935 15.2287 30.767 10.2802 30.767H0.566406V0.275146H10.83C15.6869 0.275146 19.3524 1.46552 21.9183 4.0294C24.5759 6.50172 25.8588 10.1644 25.8588 14.9259ZM17.428 15.2006C17.428 12.362 16.8782 10.3475 15.7785 8.97404C14.7705 7.69209 13.0293 6.95956 10.83 6.95956H8.63065V23.9911H10.4634C12.9377 23.9911 14.6788 23.2585 15.8701 21.7935C16.8782 20.3284 17.428 18.1308 17.428 15.2006Z" fill="white"/>
<path d="M60.1314 0.183563H52.5254V30.767H60.1314V0.183563Z" fill="white"/>
<path d="M85.241 19.3211C85.241 22.9838 84.3246 25.914 82.3085 28.02C80.2925 30.1261 77.5433 31.1333 74.061 31.1333C70.6703 31.1333 68.0128 30.1261 65.9968 27.9285C63.9807 25.7308 62.9727 22.8923 62.9727 19.3211C62.9727 15.6584 63.8891 12.7283 65.9051 10.7138C67.9212 8.60776 70.6703 7.60052 74.1526 7.60052C76.352 7.60052 78.2764 8.05836 79.9259 8.97403C81.667 9.88971 82.8584 11.2632 83.7747 13.003C84.8744 14.9259 85.241 16.9404 85.241 19.3211ZM70.8536 19.3211C70.8536 21.3356 71.1285 22.7091 71.5867 23.7164C72.0449 24.7236 72.8697 25.1814 74.1526 25.1814C75.4356 25.1814 76.1687 24.7236 76.7185 23.7164C77.1767 22.7091 77.4516 21.1525 77.4516 19.3211C77.4516 17.3067 77.1767 15.9331 76.7185 14.9259C76.2603 14.0102 75.4356 13.4608 74.1526 13.4608C73.053 13.4608 72.1366 13.9187 71.5867 14.9259C71.1285 15.9331 70.8536 17.3067 70.8536 19.3211Z" fill="white"/>
<path d="M95.9625 7.9668H88.3564V30.6755H95.9625V7.9668Z" fill="white"/>
<path d="M95.9625 0.183563H88.3564V5.31133H95.9625V0.183563Z" fill="white"/>
<path d="M111.45 24.9067C112.458 24.9067 113.741 24.632 115.116 24.1742V29.9429C114.108 30.4008 113.1 30.6755 112.183 30.8586C111.267 31.0417 110.167 31.1333 108.884 31.1333C106.318 31.1333 104.485 30.4923 103.294 29.1188C102.195 27.8369 101.553 25.8224 101.553 23.167V13.8271H98.8955V7.9668H101.553V2.28963L109.251 1.00769V8.14994H114.199V13.9187H109.251V22.7091C109.434 24.2658 110.075 24.9067 111.45 24.9067Z" fill="white"/>
<path d="M129.227 24.9067C130.235 24.9067 131.518 24.632 132.893 24.1742V29.9429C131.885 30.4008 130.877 30.6755 129.961 30.8586C129.044 31.0417 127.944 31.1333 126.662 31.1333C124.096 31.1333 122.263 30.4923 121.072 29.1188C119.972 27.8369 119.33 25.8224 119.33 23.167V13.8271H116.673V7.9668H119.33V2.19806L127.028 1.00769V8.14994H131.977V13.9187H127.028V22.7091C127.12 24.2658 127.853 24.9067 129.227 24.9067Z" fill="white"/>
<path d="M153.421 10.256C151.588 8.42463 149.022 7.60052 145.723 7.60052C142.241 7.60052 139.492 8.60776 137.567 10.7138C135.643 12.8199 134.727 15.75 134.727 19.5958C134.727 23.2585 135.735 26.1887 137.751 28.2032C139.858 30.2176 142.699 31.2249 146.365 31.2249C148.198 31.2249 149.664 31.1333 150.947 30.8586C152.138 30.5839 153.513 30.2176 154.612 29.5767L153.513 24.4489C152.688 24.8152 151.771 25.0899 151.038 25.273C149.939 25.5477 148.656 25.6393 147.373 25.6393C145.907 25.6393 144.715 25.273 143.89 24.632C143.066 23.8995 142.608 22.8923 142.608 21.6103H156.262V18.0392C156.17 14.6512 155.162 12.0873 153.421 10.256ZM142.608 16.5741C142.699 15.3837 143.066 14.3765 143.616 13.8271C144.165 13.2777 144.899 13.003 145.907 13.003C146.823 13.003 147.739 13.2777 148.289 13.9187C148.839 14.5596 149.114 15.3837 149.206 16.5741H142.608Z" fill="white"/>
<path d="M46.8438 10.256C44.9194 8.42463 42.4451 7.60052 39.1461 7.60052C35.6638 7.60052 32.9146 8.60776 30.9902 10.7138C29.0658 12.8199 28.1494 15.75 28.1494 19.5958C28.1494 23.2585 29.1574 26.1887 31.1735 28.2032C33.2812 30.2176 36.122 31.2249 39.7876 31.2249C41.6204 31.2249 43.0866 31.1333 44.3695 30.8586C45.5608 30.5839 46.9354 30.2176 48.0351 29.5767L46.9354 24.3573C46.1107 24.7236 45.1943 24.9983 44.4612 25.1814C43.3615 25.4561 42.0786 25.5477 40.7956 25.5477C39.3294 25.5477 38.1381 25.1814 37.3133 24.5405C36.4886 23.8079 36.0304 22.8007 36.0304 21.5187H49.6846V18.0392C49.593 14.6512 48.5849 12.0873 46.8438 10.256ZM35.9387 16.5741C36.0304 15.3837 36.3969 14.3765 36.9468 13.8271C37.4966 13.2777 38.2297 13.003 39.2377 13.003C40.2458 13.003 41.0705 13.2777 41.6204 13.9187C42.1702 14.5596 42.4451 15.3837 42.5368 16.5741H35.9387Z" fill="white"/>
</g>
<defs>
<clipPath id="clip0_177_4912">
<rect width="166.783" height="31.1329" fill="white" transform="translate(0.566406 0.183563)"/>
</clipPath>
</defs>
</svg>
