<svg width="167" height="53" viewBox="0 0 167 53" fill="none" xmlns="http://www.w3.org/2000/svg">
<g clip-path="url(#clip0_177_4934)">
<path d="M20.9956 19.2675V24.8497H34.467C34.1094 27.9377 33.0364 30.3131 31.3674 31.8571C29.46 33.7574 26.3603 35.8953 20.9956 35.8953C12.7697 35.8953 6.33205 29.2442 6.33205 21.0491C6.33205 12.8539 12.6505 6.20282 20.9956 6.20282C25.4066 6.20282 28.7447 7.98437 31.129 10.241L35.0631 6.32159C31.7251 3.1148 27.1948 0.620636 20.9956 0.620636C9.67009 0.620636 0.132812 9.76592 0.132812 21.0491C0.132812 32.3322 9.67009 41.4775 20.9956 41.4775C27.0756 41.4775 31.7251 39.4584 35.3015 35.7765C38.9972 32.0947 40.1894 26.8688 40.1894 22.7118C40.1894 21.4054 40.0702 20.2177 39.951 19.2675H20.9956Z" fill="#4285F4"/>
<path d="M56.8795 14.6355C49.6074 14.6355 43.5273 20.2176 43.5273 27.8189C43.5273 35.4202 49.4881 41.0024 56.8795 41.0024C64.2709 41.0024 70.2317 35.539 70.2317 27.9377C70.2317 20.2177 64.2709 14.6355 56.8795 14.6355ZM56.8795 35.8953C52.8262 35.8953 49.3689 32.5697 49.3689 27.9377C49.3689 23.1869 52.8262 19.9801 56.8795 19.9801C60.9329 19.9801 64.3901 23.1869 64.3901 27.9377C64.3901 32.5697 60.9329 35.8953 56.8795 35.8953Z" fill="#EA4335"/>
<path d="M122.091 17.6047H121.852C120.541 16.0607 118.037 14.6355 114.818 14.6355C108.142 14.6355 102.42 20.3364 102.42 27.8189C102.42 35.1827 108.142 41.0024 114.818 41.0024C118.037 41.0024 120.541 39.5771 121.852 38.0331H122.091V39.9334C122.091 44.9218 119.349 47.6535 115.057 47.6535C111.48 47.6535 109.334 45.1593 108.381 42.9027L103.374 45.0406C104.804 48.4849 108.738 52.8794 115.176 52.8794C121.971 52.8794 127.813 48.8412 127.813 39.1021V15.3481H122.329V17.6047H122.091ZM115.414 35.8953C111.361 35.8953 108.381 32.4509 108.381 27.9377C108.381 23.3057 111.48 19.9801 115.414 19.9801C119.349 19.9801 122.448 23.4244 122.448 28.0565C122.567 32.5697 119.468 35.8953 115.414 35.8953Z" fill="#4285F4"/>
<path d="M86.5641 14.6355C79.2919 14.6355 73.2119 20.2176 73.2119 27.8189C73.2119 35.4202 79.1727 41.0024 86.5641 41.0024C93.9555 41.0024 99.9163 35.539 99.9163 27.9377C99.9163 20.2177 93.9555 14.6355 86.5641 14.6355ZM86.5641 35.8953C82.5108 35.8953 79.0535 32.5697 79.0535 27.9377C79.0535 23.1869 82.5108 19.9801 86.5641 19.9801C90.6175 19.9801 94.0747 23.1869 94.0747 27.9377C94.0747 32.5697 90.6175 35.8953 86.5641 35.8953Z" fill="#FBBC05"/>
<path d="M132.225 1.21448H137.947V41.1212H132.225V1.21448Z" fill="#34A853"/>
<path d="M155.59 35.8953C152.61 35.8953 150.583 34.5888 149.153 31.8571L166.916 24.6121L166.32 23.0681C165.247 20.0989 161.79 14.6355 154.994 14.6355C148.199 14.6355 142.477 19.9801 142.477 27.8189C142.477 35.1827 148.08 41.0024 155.59 41.0024C161.67 41.0024 165.128 37.3205 166.677 35.1827L162.147 32.2134C160.597 34.47 158.571 35.8953 155.59 35.8953ZM155.233 19.6238C157.617 19.6238 159.644 20.8115 160.24 22.4743L148.318 27.4626C148.199 21.9992 152.252 19.6238 155.233 19.6238Z" fill="#EA4335"/>
</g>
<defs>
<clipPath id="clip0_177_4934">
<rect width="166.783" height="52.2587" fill="white" transform="translate(0.132812 0.620636)"/>
</clipPath>
</defs>
</svg>
