<svg width="545" height="556" viewBox="0 0 545 556" fill="none" xmlns="http://www.w3.org/2000/svg">
<path opacity="0.37" d="M47.3428 452.488C48.5311 455.428 49.8444 458.367 51.2828 461.182C72.6715 503.153 116.074 529.611 162.354 534.365C199.378 538.118 235.401 526.046 266.358 506.343C297.253 486.702 322.018 459.056 356.353 444.669C404.759 424.466 458.731 408.516 496.693 365.732C539.845 317.131 556.481 243.448 536.155 181.274C516.393 120.602 450.788 100.961 399.818 74.2526C308.197 26.1523 181.303 -5.81039 85.93 50.6716C-28.3306 118.287 -7.56729 271.783 28.6434 378.304C36.8986 402.574 37.8993 428.719 47.3428 452.488Z" fill="#CCE9FF"/>
<path d="M105.63 164.886L105.443 163.698H104.254C81.1147 163.698 73.6099 156.255 73.5473 156.192L72.5467 155.066L71.5461 156.192C71.4835 156.255 64.0413 163.698 40.8389 163.698H39.6507L39.463 164.886C39.4005 165.262 34.5224 202.541 71.9213 221.681L72.5467 221.994L73.1721 221.681C110.696 202.541 105.63 165.262 105.63 164.886ZM100.002 187.967C95.3738 201.353 86.1179 211.736 72.4842 218.866C58.8504 211.736 49.5945 201.353 44.9666 187.967C41.5894 178.147 41.777 169.578 42.0272 166.513C61.2895 166.263 69.8575 161.134 72.4842 159.007C75.1108 161.071 83.6788 166.263 102.941 166.513C103.191 169.64 103.379 178.147 100.002 187.967ZM142.341 116.974L141.028 113.534C139.84 113.408 138.714 113.096 137.588 112.72L134.899 115.222L127.144 109.655L128.645 106.278C127.895 105.34 127.269 104.339 126.769 103.275L123.079 103.15L121.516 93.7054L124.955 92.3919C125.08 91.2035 125.393 90.0776 125.768 88.9517L123.267 86.2621L128.833 78.4434L132.21 79.9446C133.148 79.194 134.149 78.5685 135.212 78.0681L135.337 74.3777L144.78 72.814L146.094 76.2542C147.282 76.3793 148.408 76.692 149.533 77.0673L152.223 74.5654L159.978 80.1323L158.477 83.5099C159.227 84.4482 159.853 85.4489 160.353 86.5123L164.043 86.6374L165.606 96.0823L162.166 97.3958C161.979 98.5843 161.729 99.7102 161.353 100.836L163.855 103.526L158.289 111.344L154.912 109.843C153.974 110.594 152.973 111.219 151.91 111.72L151.785 115.41L142.341 116.974ZM136.963 109.718L137.713 110.031C139.089 110.594 140.59 110.906 142.091 111.032L142.904 111.094L144.03 114.034L149.221 113.158L149.346 110.031L150.096 109.718C151.472 109.093 152.723 108.279 153.911 107.341L154.537 106.841L157.413 108.154L160.478 103.901L158.289 101.587L158.602 100.836C159.165 99.46 159.477 97.9588 159.602 96.4576L159.665 95.6445L162.604 94.5186L161.729 89.327L158.602 89.2019L158.289 88.4513C157.664 87.0752 156.851 85.8242 155.912 84.6358L155.412 84.0103L156.726 81.133L152.473 78.0681L150.159 80.1948L149.408 79.8821C148.032 79.3191 146.532 79.0064 145.031 78.8813L144.218 78.8187L143.092 75.8789L137.901 76.7546L137.776 79.8821L137.025 80.1948C135.65 80.8203 134.399 81.6334 133.21 82.5717L132.585 83.0721L129.708 81.7585L126.644 86.0119L128.833 88.3262L128.52 89.0768C127.957 90.4529 127.644 91.9541 127.519 93.4552L127.457 94.2684L124.517 95.3943L125.393 100.586L128.52 100.711L128.833 101.462C129.458 102.838 130.271 104.089 131.209 105.277L131.71 105.903L130.396 108.78L134.649 111.845L136.963 109.718ZM143.467 105.34C141.341 105.34 139.214 104.652 137.463 103.401C132.773 100.085 131.71 93.5803 135.024 88.8891C138.339 84.198 144.843 83.1346 149.533 86.4497C151.785 88.076 153.286 90.4529 153.786 93.205C154.224 95.9572 153.599 98.7094 152.035 100.961C150.409 103.213 148.032 104.714 145.281 105.215C144.593 105.277 144.03 105.34 143.467 105.34ZM143.467 87.1378C141.028 87.1378 138.651 88.2637 137.15 90.3903C135.962 92.0792 135.462 94.1433 135.837 96.2074C136.212 98.2715 137.276 100.023 138.964 101.211C140.653 102.4 142.717 102.9 144.78 102.525C146.844 102.15 148.595 101.086 149.784 99.3974C150.972 97.7086 151.472 95.6445 151.097 93.5803C150.722 91.5162 149.658 89.7648 147.97 88.5764C146.594 87.6382 145.031 87.1378 143.467 87.1378ZM442.158 218.929L439.219 211.235C436.092 210.86 432.965 210.172 430.025 209.109L424.021 214.738L407.761 203.167L411.138 195.661C409.199 193.221 407.511 190.532 406.135 187.654L397.942 187.404L394.628 167.701L402.32 164.761C402.695 161.634 403.383 158.506 404.446 155.567L398.818 149.562L410.388 133.299L417.893 136.677C420.332 134.738 423.021 133.049 425.898 131.673L426.148 123.479L445.848 120.164L448.787 127.857C451.914 128.233 455.041 128.921 457.981 129.984L463.984 124.355L480.245 135.926L476.868 143.432C478.806 145.872 480.495 148.561 481.871 151.438L490.064 151.689L493.378 171.392L485.686 174.331C485.311 177.459 484.623 180.586 483.56 183.526L489.188 189.531L477.618 205.794L470.113 202.416C467.674 204.355 464.985 206.044 462.108 207.42L461.858 215.614L442.158 218.929ZM429.15 205.106L430.15 205.481C433.465 206.732 436.967 207.545 440.532 207.858L441.658 207.983L444.347 214.988L458.356 212.612L458.606 205.106L459.607 204.668C462.859 203.229 465.923 201.29 468.675 198.976L469.488 198.288L476.367 201.353L484.623 189.781L479.494 184.277L479.87 183.276C481.12 179.961 481.933 176.458 482.246 172.893L482.309 171.767L489.313 169.077L486.937 155.066L479.432 154.816L478.994 153.815C477.556 150.563 475.617 147.498 473.303 144.746L472.615 143.932L475.679 137.052L464.11 128.796L458.606 133.925L457.605 133.549C454.291 132.298 450.789 131.485 447.224 131.172L446.098 131.11L443.409 124.104L429.4 126.481L429.15 133.987L428.149 134.425C424.897 135.864 421.833 137.803 419.081 140.117L418.268 140.805L411.388 137.74L403.258 149.312L408.386 154.816L408.011 155.817C406.76 159.132 405.947 162.635 405.635 166.2L405.572 167.326L398.568 170.016L400.944 184.027L408.449 184.277L408.887 185.278C410.325 188.53 412.264 191.595 414.578 194.347L415.266 195.16L412.201 202.041L423.771 210.297L429.15 205.106ZM443.909 192.22C439.344 192.22 434.778 190.844 430.776 188.03C420.582 180.774 418.205 166.575 425.46 156.38C432.714 146.184 446.911 143.807 457.105 151.063C467.299 158.319 469.676 172.517 462.421 182.713C457.981 188.905 450.976 192.22 443.909 192.22ZM443.972 150.375C437.968 150.375 432.027 153.19 428.337 158.444C425.335 162.635 424.209 167.701 425.022 172.768C425.898 177.834 428.649 182.213 432.84 185.215C441.47 191.345 453.478 189.343 459.607 180.711C462.546 176.521 463.734 171.454 462.921 166.388C462.046 161.321 459.294 156.943 455.104 153.94C451.664 151.501 447.787 150.375 443.972 150.375ZM137.651 359.665C134.649 351.221 131.209 341.713 135.024 331.955C140.152 318.82 129.27 312.065 119.702 305.998C111.447 300.868 103.692 295.99 106.318 287.921C109.195 279.164 109.007 272.409 105.755 267.968C103.004 264.215 98.1256 262.213 91.6214 262.276C86.4306 262.338 81.8026 255.958 76.862 249.265C71.0457 241.384 65.1044 233.253 57.5996 235.067C56.2863 235.379 55.2231 236.13 54.5977 237.318C51.971 242.26 56.0987 254.019 60.539 266.529C65.2921 280.04 70.733 295.302 67.1683 301.807C63.2908 308.937 70.2953 315.442 77.7375 322.385C85.6176 329.704 94.5608 338.023 92.1843 348.468C89.9328 358.226 89.4325 361.854 90.8084 363.981C91.8715 365.669 94.0604 366.045 97.3751 366.67C99.6265 367.108 102.503 367.609 106.006 368.734C121.078 373.426 125.456 383.183 125.518 383.308L125.706 383.746L126.143 383.684C133.398 382.558 137.651 380.494 139.652 377.179C139.777 376.991 139.84 376.803 139.965 376.616C142.091 372.175 140.027 366.358 137.651 359.665Z" fill="#FFBE55"/>
<path d="M99.1263 341.025C101.628 344.903 103.442 348.281 103.254 353.035C103.129 357.476 102.441 361.854 102.066 366.232C102.003 367.171 101.941 368.046 101.878 368.922C100.627 367.859 99.439 366.795 98.1882 365.732C97.6254 365.67 97.0625 365.67 96.4371 365.67C98.1882 367.108 100.002 368.672 101.753 370.236C101.565 373.301 101.503 376.365 101.503 379.43C101.503 381.244 101.44 383.183 101.565 384.997C99.9393 383.996 98.2507 382.996 96.6872 381.995C91.8091 378.992 87.2437 376.178 83.7415 374.677C81.0523 373.551 78.0503 372.55 75.1735 371.612C67.6687 369.172 59.9763 366.67 57.4121 361.354C56.0988 358.601 56.2239 355.286 57.7874 351.283C61.7274 340.963 58.0375 339.211 51.8461 336.209C47.3432 334.02 41.2143 331.08 35.0854 323.636C32.3961 320.384 30.0196 317.569 27.8933 315.13C21.5767 307.686 18.0745 303.621 18.5123 301.244C18.6373 300.681 18.95 300.18 19.5754 299.68C19.8881 299.43 20.2634 299.18 20.7637 298.929C23.1402 297.616 25.5167 298.617 28.206 299.743C31.8333 301.244 36.2736 303.183 42.4651 299.993C47.3432 297.491 52.7842 295.177 56.0363 297.053C58.2877 298.304 59.601 301.557 60.0388 306.873C60.1639 308.562 60.7268 309.75 61.6649 310.439C63.0407 311.439 65.1671 311.314 67.6062 310.814C69.2947 313.128 71.4836 314.254 74.1103 315.192C77.8002 316.506 80.5519 317.694 83.2411 320.697C88.9948 327.202 94.5609 333.832 99.1263 341.025Z" fill="#2A94F4"/>
<path d="M79.1758 351.346C75.4234 348.844 72.1713 342.777 69.0443 336.897C64.7916 328.891 60.3512 320.634 54.2849 320.822C44.5286 321.072 35.8356 309.563 35.7105 309.5L34.8975 310.126C35.2727 310.626 44.0283 322.135 54.2849 321.885C59.7258 321.76 64.0411 329.704 68.1062 337.46C71.2957 343.402 74.6104 349.594 78.5504 352.284C80.9269 353.848 85.3047 357.038 90.4955 361.103V359.79C85.9301 355.974 81.865 353.097 79.1758 351.346Z" fill="white"/>
<path d="M408.762 428.844C408.762 428.844 414.39 414.833 404.134 394.943C393.815 375.052 385.497 378.117 410.325 362.792C435.153 347.468 410.45 299.305 431.589 293.175C452.727 287.045 471.051 209.046 487.124 218.992C503.197 228.937 481.746 267.154 493.253 278.664C504.698 290.173 506.261 304.747 482.559 316.568C458.856 328.39 499.382 373.551 467.236 387.312C435.091 401.072 444.347 455.052 408.762 428.844Z" fill="#FFBE55"/>
<path d="M418.58 443.668C418.518 443.481 415.078 425.592 426.022 402.448C437.155 378.867 442.47 353.097 440.281 333.457C439.093 322.823 445.91 318.695 452.477 314.692C458.981 310.751 465.673 306.623 465.297 296.177C464.985 286.732 468.987 264.59 469.112 263.652L470.551 263.902C470.488 264.152 466.423 286.857 466.736 296.115C467.111 307.436 460.044 311.752 453.227 315.88C446.723 319.821 440.657 323.574 441.72 333.269C443.971 353.097 438.593 379.18 427.336 403.011C416.641 425.717 419.956 443.168 420.019 443.356L418.58 443.668Z" fill="white"/>
<path d="M503.947 327.452C512.89 323.199 522.396 325.138 517.456 334.082C512.515 343.027 505.135 343.715 506.511 350.783C507.887 357.851 511.515 365.544 499.882 370.048C488.25 374.489 482.809 373.738 475.742 386.811C468.612 399.884 466.173 409.579 453.978 406.452C441.782 403.262 451.914 387.186 458.23 380.431C458.23 380.431 466.798 373.175 466.673 360.103C466.548 347.03 461.17 338.273 478.056 339.149C494.941 339.899 497.881 330.329 503.947 327.452Z" fill="#0E538C"/>
<path d="M452.039 415.584C452.54 413.895 464.297 373.426 473.928 369.047C483.747 364.544 489.063 352.784 491.377 346.217C494.379 337.647 507.199 335.959 507.7 335.896L507.887 337.335C507.762 337.335 495.442 338.961 492.753 346.655C489.876 354.974 484.372 365.857 474.554 370.361C465.548 374.489 453.603 415.584 453.478 416.022L452.039 415.584ZM142.279 382.996C123.016 378.179 122.766 367.796 122.516 357.788C122.328 349.594 122.141 341.838 111.697 337.084C97.8752 330.767 97.5626 319.07 97.2499 308.75C96.9997 301.056 96.8121 293.8 91.0584 289.86C77.237 280.415 65.5421 257.522 65.417 257.272L66.4802 256.709C66.6053 256.959 78.1126 279.539 91.7463 288.859C98.0003 293.112 98.2505 300.681 98.4381 308.687C98.7508 319.133 99.0635 330.016 112.197 335.959C123.266 341.025 123.517 349.532 123.704 357.726C123.954 367.734 124.205 377.241 142.591 381.807L142.279 382.996Z" fill="white"/>
<path d="M116.324 373.738H432.714V145.309C432.714 142.056 430.087 139.366 426.773 139.366H122.266C119.013 139.366 116.324 141.993 116.324 145.309V373.738Z" fill="#F7F7F7"/>
<path d="M420.938 331.151L127.5 331.151V150.822L420.938 150.822V331.151Z" fill="#0B4870" stroke="white" stroke-width="0.593729" stroke-miterlimit="10"/>
<path d="M432.715 339.899H116.45L81.8027 469.314H467.299L432.715 339.899Z" fill="#F2F2F2"/>
<path d="M128.395 362.605H147.845C148.658 362.605 149.283 363.23 149.095 363.918L147.219 372.362C147.094 372.863 146.594 373.238 145.968 373.238H126.206C125.393 373.238 124.767 372.612 124.955 371.862L127.144 363.418C127.269 362.98 127.769 362.605 128.395 362.605ZM156.725 362.605H171.422L169.483 373.301H154.474L156.725 362.605ZM178.739 362.605H193.436L191.935 373.301H176.926L178.739 362.605ZM200.816 362.605H215.513L214.387 373.301H199.378L200.816 362.605ZM222.83 362.605H237.527L236.839 373.301H221.829L222.83 362.605ZM244.844 362.605H259.541L259.291 373.301H244.281L244.844 362.605ZM421.207 362.605H399.13L401.507 373.301H423.959L421.207 362.605ZM391.813 362.605H377.116L379.055 373.301H394.065L391.813 362.605ZM369.799 362.605H355.102L356.603 373.301H371.613L369.799 362.605ZM347.722 362.605H333.025L334.151 373.301H349.161L347.722 362.605ZM325.708 362.605H311.011L311.699 373.301H326.709L325.708 362.605ZM303.694 362.605H288.997L289.248 373.301H304.257L303.694 362.605ZM266.921 362.605H281.618L281.805 373.301H266.921V362.605ZM121.953 381.244H152.598L150.847 392.253H119.577L121.953 381.244ZM425.96 381.244H388.061L390.187 392.253H428.899L425.96 381.244ZM380.431 381.244H365.296L366.985 392.253H382.495L380.431 381.244ZM357.666 381.244H342.532L343.782 392.253H359.292L357.666 381.244ZM334.902 381.244H319.767L320.643 392.253H336.09L334.902 381.244ZM312.137 381.244H297.002L297.44 392.253H312.888L312.137 381.244ZM117.325 400.822H148.72L146.406 411.768H114.448L117.325 400.822ZM156.538 400.822H172.235L170.422 411.768H154.411L156.538 400.822ZM180.115 400.822H297.753L298.191 411.768H178.364L180.115 400.822ZM305.633 400.822H321.331L322.206 411.768H306.196L305.633 400.822ZM329.148 400.822H344.846L346.159 411.768H330.149L329.148 400.822ZM352.726 400.822H368.423L370.112 411.768H354.164L352.726 400.822ZM376.241 400.822H391.938L394.065 411.768H378.117L376.241 400.822ZM399.756 400.822H431.151L434.028 411.768H402.07L399.756 400.822ZM289.435 381.244H274.363V392.253H289.685L289.435 381.244ZM266.671 381.244H251.473L251.036 392.253H266.546L266.671 381.244ZM243.906 381.244H228.709L227.833 392.253H243.343L243.906 381.244ZM221.141 381.244H205.944L204.631 392.253H220.141L221.141 381.244ZM198.377 381.244H183.18L181.429 392.253H196.938L198.377 381.244ZM175.612 381.244H160.415L158.289 392.253H173.736L175.612 381.244ZM129.083 355.912L131.584 346.404H138.714L136.4 355.912H129.083ZM145.843 346.404H160.102L158.164 355.912H143.592L145.843 346.404ZM167.295 346.404H181.554L179.928 355.912H165.418L167.295 346.404ZM188.683 346.404H202.942L201.692 355.912H187.182L188.683 346.404ZM210.072 346.404H224.331L223.455 355.912H208.946L210.072 346.404ZM231.461 346.404H245.72L245.219 355.912H230.71L231.461 346.404ZM252.849 346.404H267.108L266.983 355.912H252.474L252.849 346.404ZM274.238 346.404H288.497L288.747 355.912H274.238V346.404ZM295.627 346.404H309.886L310.511 355.912H296.002L295.627 346.404ZM317.015 346.404H331.337L332.275 355.912H317.766L317.015 346.404ZM338.466 346.404H352.726L354.101 355.912H339.592L338.466 346.404ZM359.855 346.404H374.114L375.865 355.912H361.356L359.855 346.404ZM381.244 346.404H395.503L397.629 355.912H383.12L381.244 346.404ZM402.633 346.404H416.892L419.393 355.912H404.884L402.633 346.404Z" fill="#0B4870" stroke="white" stroke-width="0.593729" stroke-miterlimit="10"/>
<path d="M457.23 479.384H91.8717C86.3056 479.384 81.8027 474.88 81.8027 469.314H467.299C467.299 474.88 462.796 479.384 457.23 479.384ZM319.392 427.468C319.017 425.216 317.016 423.528 314.764 423.528H234.4C232.086 423.528 230.148 425.216 229.772 427.468L224.769 457.805C224.269 460.682 226.52 463.309 229.397 463.309H319.705C322.644 463.309 324.833 460.682 324.333 457.805L319.392 427.468Z" fill="#D3D3D3"/>
<path d="M147.282 166.137H179.991V169.515H147.282V166.137ZM189.184 191.345H212.762V194.722H189.184V191.345ZM216.451 191.345H232.086V194.722H216.451V191.345ZM147.657 254.77H163.292V258.147H147.657V254.77ZM235.213 191.345H273.05V194.722H235.213V191.345ZM147.657 242.072H171.986V245.45H147.657V242.072ZM181.554 267.342H196.376V270.72H181.554V267.342ZM147.657 267.342H177.051V270.72H147.657V267.342ZM147.657 279.977H163.855V283.355H147.657V279.977ZM186.37 166.137H209.572V169.515H186.37V166.137ZM186.37 203.98H209.572V207.357H186.37V203.98ZM174.737 216.552H184.681V219.93H174.737V216.552ZM164.856 229.375H187.12V232.752H164.856V229.375ZM190.497 229.375H221.267V232.752H190.497V229.375ZM147.657 216.677H170.86V220.055H147.657V216.677ZM147.657 229.375H161.416V232.752H147.657V229.375ZM189.372 216.677H202.38V220.055H189.372V216.677ZM148.095 292.549H161.104V295.927H148.095V292.549ZM147.595 191.345H170.797V194.722H147.595V191.345ZM168.108 254.77H191.31V258.147H168.108V254.77ZM168.421 279.977H191.623V283.355H168.421V279.977ZM209.635 279.977H232.837V283.355H209.635V279.977ZM147.595 203.98H180.679V207.357H147.595V203.98ZM302.632 166.137H325.834V169.515H302.632V166.137ZM219.954 292.549H243.156V295.927H219.954V292.549ZM333.026 166.137H348.536V169.515H333.026V166.137ZM385.622 178.772H401.132V182.15H385.622V178.772ZM215.826 166.137H245.407V169.515H215.826V166.137ZM331.025 178.772H360.606V182.15H331.025V178.772ZM294.752 191.345H324.333V194.722H294.752V191.345ZM256.289 203.98H285.871V207.357H256.289V203.98ZM328.023 191.345H349.036V194.722H328.023V191.345ZM267.234 166.137H296.815V169.515H267.234V166.137ZM233.525 203.98H250.848V207.357H233.525V203.98ZM219.954 254.957H237.277V258.335H219.954V254.957ZM250.848 166.137H261.668V169.515H250.848V166.137ZM215.826 203.98H226.645V207.357H215.826V203.98ZM367.736 178.772H378.555V182.15H367.736V178.772ZM147.282 178.772H164.231V182.15H147.282V178.772ZM192.499 242.135H205.882V245.512H192.499V242.135ZM168.421 178.772H173.862V182.15H168.421V178.772ZM280.617 178.772H325.834V182.15H280.617V178.772ZM237.277 279.977H282.494V283.355H237.277V279.977ZM177.864 178.772H183.43V182.15H177.864V178.772ZM261.668 178.772H276.427V182.15H261.668V178.772ZM276.49 191.345H291.249V194.722H276.49V191.345ZM200.441 292.549H215.201V295.927H200.441V292.549ZM226.333 178.772H257.79V182.15H226.333V178.772ZM197.002 254.957H215.388V258.335H197.002V254.957ZM195.876 279.977H205.069V283.355H195.876V279.977ZM211.01 178.772H221.83V182.15H211.01V178.772ZM174.612 191.345H185.432V194.722H174.612V191.345ZM176.739 242.135H187.558V245.512H176.739V242.135ZM188.058 178.772H206.945V182.15H188.058V178.772Z" fill="#F7F7F7"/>
<path d="M346.409 204.105C346.409 204.105 351.913 213.425 354.227 214.926C357.354 216.99 355.415 219.054 353.914 219.117C352.413 219.117 344.783 219.68 343.095 217.741C341.406 215.802 340.593 210.11 339.029 208.608C337.466 207.107 335.84 201.165 339.78 199.726C343.22 198.413 346.409 204.105 346.409 204.105Z" fill="#FFB750"/>
<path d="M343.97 200.039C343.97 200.039 350.286 210.985 351.35 212.549C352.413 214.175 349.286 214.175 347.347 213.425C345.408 212.674 340.53 204.855 339.842 203.417C339.029 201.728 339.717 199.789 339.717 199.789L343.97 200.039Z" fill="#FFE3CA"/>
<path d="M337.591 205.856L339.091 217.053L339.842 217.115L339.592 209.046L337.591 205.856ZM291.811 204.105C291.811 204.105 297.315 213.425 299.629 214.926C302.756 216.99 300.817 219.054 299.316 219.117C297.815 219.117 290.185 219.68 288.497 217.741C286.808 215.802 285.995 210.11 284.432 208.608C282.868 207.107 281.179 200.977 285.182 199.726C288.684 198.601 291.811 204.105 291.811 204.105Z" fill="#FFB750"/>
<path d="M289.747 200.039C289.747 200.039 295.689 210.923 296.814 212.549C297.878 214.175 294.751 214.175 292.812 213.425C290.873 212.674 285.995 204.855 285.307 203.417C284.494 201.728 285.182 199.789 285.182 199.789L289.747 200.039Z" fill="#FFE3CA"/>
<path d="M283.057 205.856L284.495 217.053L285.308 217.115L285.058 209.046L283.057 205.856Z" fill="#FFB750"/>
<path d="M267.421 119.226L317.203 141.931C317.203 141.931 322.769 143.745 323.394 149.937C325.333 169.202 339.717 199.726 339.717 199.726C344.345 201.978 343.97 200.039 343.97 200.039C341.03 190.657 337.528 152.126 336.215 136.677C335.965 133.424 335.777 131.172 335.715 130.422C335.715 129.921 335.152 129.296 334.214 128.545C327.397 122.978 299.254 111.532 299.254 111.532C278.303 110.969 267.421 119.226 267.421 119.226Z" fill="#FFE3CA"/>
<path d="M258.04 128.983C259.604 142.431 278.804 140.93 278.804 140.93H302.068C302.068 140.93 295.939 154.566 293.563 166.012C291.061 178.209 285.12 199.726 285.12 199.726C285.12 199.726 285.495 200.477 289.748 200.039C289.748 200.039 308.01 163.635 315.014 154.441C316.515 152.502 320.83 141.743 321.581 135.363C321.831 133.237 321.706 131.548 320.893 130.86C320.08 130.172 318.204 128.921 315.765 127.357C308.447 122.728 295.814 115.66 288.747 114.096C279.304 111.97 264.357 107.967 264.357 107.967C264.357 107.967 256.477 115.535 258.04 128.983Z" fill="#FFE3CA"/>
<path d="M273.863 25.2766C273.863 25.2766 270.36 18.6464 272.049 11.6409C273.738 4.57279 280.304 -2.43273 289.873 0.819833C299.442 4.07239 307.196 11.4532 301.443 20.085C295.689 28.6542 306.634 32.5948 303.819 36.6605C301.005 40.7262 302.068 45.0421 303.256 45.9804C304.445 46.9186 308.26 50.2963 307.822 54.362C307.384 58.3651 289.248 42.6653 289.248 42.6653C289.248 42.6653 279.429 22.7121 273.863 25.2766Z" fill="#0E538C"/>
<path d="M303.069 109.843C303.069 109.843 301.63 116.849 264.419 108.029C264.419 108.029 276.864 103.901 303.069 109.843Z" fill="#EB4747"/>
<path d="M263.981 109.968C263.419 111.094 262.856 112.157 262.23 113.283C275.801 113.659 289.435 114.096 303.006 114.472C300.88 107.279 301.568 97.5209 301.943 90.1401C302.381 81.0705 307.384 74.8156 306.884 65.6834C309.573 66.1212 310.011 66.1838 312.7 66.6216C308.572 54.8624 307.197 49.0453 294.376 44.5418C290.186 43.0406 287.496 42.7904 282.994 43.1657C268.172 44.4167 263.731 44.5418 256.414 57.9898C267.796 59.8038 265.92 63.8695 269.36 75.2534C271.048 80.7578 272.8 86.9501 271.924 92.7672C271.048 98.4592 263.981 104.777 263.981 109.968Z" fill="white"/>
<path d="M287.621 47.3565C281.555 46.2306 282.868 42.8529 282.868 42.8529C282.868 42.8529 283.118 40.9765 283.243 38.537C283.243 37.9115 283.306 37.2861 283.306 36.598C283.306 35.5972 283.243 34.5964 283.118 33.5956C282.618 29.5299 294.125 31.9694 294.125 31.9694C294.125 31.9694 293.437 40.2259 295.063 42.6653C296.627 45.1673 293.687 48.5449 287.621 47.3565Z" fill="#FFE3CA"/>
<path d="M276.052 42.8529C276.052 42.8529 288.31 56.9891 292.813 60.2416C292.813 60.2416 298.003 55.5504 294.814 43.1657C294.814 43.1657 288.935 40.1633 276.052 42.8529ZM276.427 8.82615C276.427 8.82615 270.048 21.0858 276.364 32.6574C282.681 44.229 295.064 27.5909 295.814 25.6519C296.627 23.7129 300.88 12.6417 292.437 9.32654C283.994 5.94888 278.241 5.51104 276.427 8.82615Z" fill="#FFE3CA"/>
<path d="M288.684 33.9084C288.684 33.9084 287.558 36.3478 283.243 38.537C283.243 37.9115 283.306 37.286 283.306 36.598C283.306 36.598 286.245 36.2853 288.684 33.9084Z" fill="#FCD2B1"/>
<path d="M224.456 98.9596C224.456 98.9596 221.454 100.273 220.016 99.7102C218.578 99.0847 216.389 98.9596 215.701 98.9596C214.763 98.9596 211.823 97.8962 211.886 99.0847C211.948 100.211 216.639 101.024 217.577 101.399C218.515 101.774 214.7 103.838 214.325 104.777C213.95 105.715 218.327 111.845 220.766 110.093C223.205 108.342 224.519 104.839 225.019 104.589C225.519 104.339 226.833 103.401 226.833 103.401L224.456 98.9596Z" fill="#FFE3CA"/>
<path d="M214.825 104.214C214.825 104.214 207.758 110.093 207.633 110.906C207.508 111.72 207.883 112.095 208.571 111.532C209.259 111.032 215.576 106.028 215.576 106.028C215.576 106.028 208.509 114.409 208.259 115.035C208.134 115.41 208.821 116.161 209.197 115.91C209.572 115.66 217.139 107.779 217.139 107.779C217.139 107.779 210.51 115.598 210.51 116.223C210.447 116.724 211.261 117.287 211.823 116.724C212.386 116.161 218.953 109.28 218.953 109.28C218.953 109.28 214.513 115.285 214.825 115.848C215.013 116.161 215.576 116.849 216.639 115.285C217.702 113.721 220.704 110.218 220.704 110.218L214.825 104.214Z" fill="#FFE3CA"/>
<path d="M299.629 140.868H278.804C278.804 140.868 259.604 142.431 258.04 128.921C256.477 115.473 264.357 107.967 264.357 107.967C264.357 107.967 274.488 110.656 283.369 112.783C287.809 111.845 293.125 111.219 299.379 111.407C299.379 111.407 336.903 123.792 335.777 130.359C335.777 130.422 320.08 122.04 299.629 140.868Z" fill="#0E538C"/>
<path d="M286.058 117.599L325.833 116.974L305.758 127.169L286.058 117.599Z" fill="#F2F2F2"/>
<path d="M298.441 112.47C298.441 112.47 289.498 115.91 278.553 112.783L278.053 108.717L300.63 109.968L298.441 112.47Z" fill="white"/>
<path d="M305.758 127.169L286.058 119.538V117.599L307.321 125.23L305.758 127.169Z" fill="#D3D3D3"/>
<path d="M298.253 114.409C298.128 115.848 299.629 116.911 301.005 116.348L303.319 115.347C304.007 115.035 304.444 114.347 304.319 113.596C303.381 107.591 301.317 84.198 304.319 80.1323C305.445 78.6311 306.133 77.3176 306.508 76.1917C308.51 81.3207 310.949 87.9509 311.949 91.5162L330.711 116.536L337.028 118.162C329.148 99.2098 322.831 89.2019 322.831 89.2019C321.58 85.8868 318.078 75.8789 314.951 66.9969C312.95 61.3675 311.199 56.1759 310.198 53.4237C309.698 51.9851 308.76 50.7967 307.446 50.0461C304.507 48.2947 299.691 45.5425 295.314 43.4159H295.251C295.126 43.3533 295.001 43.2908 294.813 43.2282C303.194 55.8006 299.942 91.5162 298.253 114.409C298.253 114.347 298.253 114.347 298.253 114.409ZM267.233 44.229C264.544 44.6668 257.915 51.1094 254.412 57.6145C250.41 65.0579 246.282 73.502 243.218 76.2542C237.589 81.3832 221.767 99.46 221.016 99.0221C220.703 98.8345 225.331 104.401 225.957 104.652C226.269 104.777 251.911 82.5091 254.412 79.1315C256.726 75.9415 262.98 62.4308 264.857 62.7436C264.982 63.0563 267.296 67.9977 269.422 75.1909C269.485 75.316 269.485 75.4411 269.547 75.5662C271.048 80.5701 270.923 86.0744 270.11 92.2043C269.485 96.8329 266.045 104.401 263.981 108.092C263.731 108.53 263.793 109.405 264.044 110.031C264.231 110.406 264.419 110.719 264.732 110.844L272.299 113.659L274.05 114.284C275.301 114.785 276.677 114.534 277.677 113.784C278.49 113.221 279.116 112.283 279.241 111.157C280.929 98.2715 283.056 85.0736 284.744 80.1323C292.187 58.3651 281.868 41.9772 281.868 41.9772C281.868 41.9772 269.61 43.3533 267.233 44.229Z" fill="#FFBE55"/>
<path d="M305.758 127.169L317.578 94.8939L355.665 95.5194L344.408 125.293L305.758 127.169Z" fill="#FFBE55"/>
<path d="M329.774 109.155C328.585 111.469 328.961 114.034 330.587 114.785C332.213 115.598 334.402 114.347 335.59 112.032C336.778 109.718 336.403 107.154 334.777 106.403C333.151 105.59 330.899 106.841 329.774 109.155Z" fill="#F2F0F0"/>
<path d="M306.633 48.1696C303.819 43.9163 301.818 40.5386 301.568 34.4713C301.38 30.4682 300.505 25.0264 297.753 22.3368C300.63 14.8309 297.252 12.5791 295.877 10.1397C294.188 7.07477 281.68 -0.306041 276.739 7.45006C271.799 15.1436 273.55 23.2125 273.55 23.2125C274.05 18.9591 278.428 13.2046 278.428 13.2046C279.116 17.6456 288.309 24.9013 292.312 27.8411C292.249 27.9037 292.187 28.0288 292.187 28.0913C289.935 31.3439 292.75 34.5964 293.25 38.0366C293.75 41.4768 283.806 50.7341 294.876 55.3628C305.946 60.054 309.448 52.3604 306.633 48.1696ZM105.317 412.519C105.317 412.519 105.067 415.146 92.8093 415.146C80.5514 415.146 62.7275 411.956 62.7275 411.956L91.1832 409.204C91.1832 409.204 102.128 408.641 105.317 412.519Z" fill="#0E538C"/>
<path d="M74.1104 413.457C67.1685 413.457 64.2291 417.022 61.4773 418.148C58.7256 419.274 55.9738 420.963 55.9738 420.9C57.5373 417.836 59.7262 417.773 60.8519 416.772C61.9777 415.771 61.665 416.272 59.2259 416.084C57.85 415.959 55.3484 418.524 53.5973 419.962C52.0338 421.151 51.0957 421.276 51.0957 421.276C51.0957 421.276 52.9094 418.711 55.1608 416.647C57.9126 414.145 61.3523 412.081 62.1653 411.706C63.6662 411.08 68.2942 410.955 71.5463 411.393C75.2987 411.893 79.1136 413.457 74.1104 413.457Z" fill="#0E538C"/>
<path d="M62.6019 411.831C62.6019 411.831 57.286 413.207 56.3479 413.958C55.7225 414.458 52.9707 417.398 52.9707 417.398C52.9707 417.398 54.972 417.085 56.0977 415.959C57.286 414.771 62.6019 411.831 62.6019 411.831ZM95.2477 407.14C95.2477 407.14 108.631 408.015 107.693 416.272C107.193 420.963 104.128 422.589 100.063 422.214C92.5585 421.589 84.0531 420.463 84.0531 420.463L80.2381 407.64L95.2477 407.14Z" fill="#0E538C"/>
<path d="M98.0625 408.266L111.196 365.92C111.196 365.92 113.135 359.727 116.324 360.853C120.89 362.542 118.638 367.609 118.263 370.611C117.45 376.741 118.013 379.43 113.76 394.192C111.133 403.324 108.882 413.832 106.63 419.837C105.067 423.965 102.378 418.023 98.3126 416.397C90.6827 413.332 98.0625 408.266 98.0625 408.266ZM99.0631 342.902C101.627 350.282 109.57 354.098 116.887 351.408C124.142 348.719 128.019 340.525 125.455 333.144C122.891 325.763 114.948 321.948 107.631 324.637C100.376 327.327 96.499 335.521 99.0631 342.902Z" fill="#0E538C"/>
<path d="M84.6794 343.59C88.6819 349.594 96.6871 351.096 102.503 346.967L101.69 339.899C107.506 335.708 108.945 327.452 104.942 321.447L102.191 317.382C98.188 311.377 90.1829 309.876 84.3667 314.004L81.74 315.88C75.9238 320.071 74.4854 328.328 78.4879 334.332L84.6794 343.59Z" fill="#0E538C"/>
<path d="M79.4263 323.887C80.1142 324.887 80.8647 325.826 81.7402 326.764C87.4939 333.019 95.1863 335.396 100.064 332.831C102.316 335.896 104.88 338.335 107.194 340.212C109.883 342.401 116.763 343.277 116.763 343.277C120.765 347.655 105.756 373.238 104.692 373.113C102.504 372.925 99.6892 358.789 101.753 353.66C102.691 351.346 104.192 348.594 103.754 347.343C102.191 343.027 100.002 343.777 100.002 343.777C100.002 343.777 97.1251 347.155 94.8736 347.03C92.5596 346.842 88.5571 343.214 88.3695 343.152C87.6815 342.589 87.0561 341.901 86.4933 341.088L80.4894 332.081C78.9259 329.579 78.5507 326.576 79.4263 323.887Z" fill="#FFE3CA"/>
<path d="M125.331 431.659C125.331 431.659 120.453 437.539 118.952 438.164C116.951 439.04 110.822 437.163 110.822 437.163C110.822 437.163 109.196 410.205 107.319 399.696C105.443 389.188 102.691 386.436 102.566 383.121C102.379 377.804 97.9384 375.677 98.6889 371.549C99.4393 367.421 100.753 352.659 101.19 354.598C105.005 371.361 109.696 357.413 110.759 355.224C111.322 354.035 125.331 431.659 125.331 431.659Z" fill="#F2F0F0"/>
<path d="M103.129 349.594C103.129 349.594 97.1874 356.1 97.6252 358.664C98.0004 361.229 95.0611 369.235 98.0004 380.369C101.315 393.066 103.066 401.698 103.692 410.017C104.317 418.336 101.503 425.967 102.628 436.162C103.504 444.169 105.318 444.607 105.318 444.607C105.318 444.607 108.882 445.482 111.384 442.355C113.886 439.29 110.133 412.019 108.882 405.263C107.632 398.445 103.629 382.558 102.566 377.867C101.253 372.112 101.503 366.232 101.565 364.544C101.878 358.601 102.628 354.911 103.254 352.659C103.316 352.347 103.629 348.844 103.129 349.594ZM113.51 357.225C116.762 366.608 126.894 371.424 136.15 367.984C145.406 364.544 150.284 354.16 147.032 344.778C143.78 335.396 133.648 330.579 124.392 334.02C115.136 337.397 110.258 347.843 113.51 357.225Z" fill="#0E538C"/>
<path d="M81.6772 518.477L84.9918 544.936L70.6076 551.753L62.665 553.505L76.7991 542.559L72.1711 518.665L81.6772 518.477Z" fill="#FCBAA2"/>
<path d="M85.9306 548.939L82.8036 549.752L80.6773 547.813L69.1699 553.567L58.9759 556.007C58.9759 556.007 58.8508 555.194 59.1635 554.756C60.4143 553.067 67.6064 549.377 67.6064 549.377C67.6064 549.377 67.7315 551.816 68.7321 551.879C69.7328 551.941 78.5509 547.312 80.6147 546.061C84.117 543.872 84.8049 542.434 85.0551 542.621C85.8055 542.997 85.9306 548.939 85.9306 548.939Z" fill="#0E538C"/>
<path d="M46.9678 481.698L35.5229 504.216L19.7629 503.465L11.8828 501.151L29.3315 498.211L38.8376 478.946L46.9678 481.698Z" fill="#FCBAA2"/>
<path d="M34.5845 508.219L31.4575 507.469L30.4569 504.716L16.2603 504.529L7.81738 502.527C7.81738 502.527 8.81803 501.401 9.44343 501.089C11.3196 500.275 18.0114 499.9 18.0114 499.9C18.0114 499.9 17.3235 501.839 18.199 502.34C19.0746 502.903 28.8308 503.215 31.2073 503.028C35.335 502.715 36.5232 501.839 36.6483 502.089C37.0861 502.965 34.5845 508.219 34.5845 508.219Z" fill="#0E538C"/>
<path d="M130.459 414.333L121.953 418.148L122.016 429.845L63.4158 420.275C63.4158 420.275 57.8497 418.461 54.2849 427.656C49.2192 440.666 36.3359 481.135 36.3359 481.135L44.4661 489.955L70.045 444.231C70.045 444.231 122.454 469.689 139.715 464.185C146.344 462.058 151.41 449.923 150.471 437.664C149.721 428.031 147.845 419.212 147.845 419.212L130.459 414.333Z" fill="#FFB750"/>
<path d="M123.016 463.934L81.0515 460.807L84.6788 527.86L72.2959 528.298L63.165 449.736C63.165 449.736 65.6041 438.039 73.6092 439.79C81.6769 441.604 101.064 456.991 123.016 463.934Z" fill="#FFB750"/>
<path d="M151.284 480.76C151.284 480.76 129.27 456.053 123.579 442.105C116.762 425.404 117.325 404.45 116.074 397.507C113.76 384.747 110.946 359.978 110.445 356.913C109.882 353.848 111.821 350.407 111.821 350.407C111.821 350.407 110.383 341.15 114.51 342.151C120.452 343.59 126.33 346.842 128.394 347.843C132.272 349.594 140.214 396.256 140.652 398.508C142.278 406.639 148.219 414.02 152.472 421.589C162.479 439.54 165.043 460.744 165.043 460.744C165.043 460.744 163.792 476.257 151.284 480.76Z" fill="#2A94F4"/>
<path d="M128.582 416.147C128.582 416.147 128.394 419.149 114.385 418.461C100.376 417.71 79.8633 413.019 79.8633 413.019L112.322 411.518C112.322 411.518 124.767 411.581 128.582 416.147Z" fill="#FFE3CA"/>
<path d="M90.8706 414.646C84.1789 414.521 81.302 417.961 78.6753 419.024C76.0487 420.087 73.3594 421.651 73.3594 421.651C74.8604 418.711 76.9868 418.649 78.1125 417.71C79.1757 416.772 78.9255 417.273 76.549 417.022C75.1731 416.897 72.7966 419.337 71.108 420.713C69.607 421.901 68.6689 421.964 68.6689 421.964C68.6689 421.964 70.4201 419.462 72.609 417.46C75.2982 415.083 78.5503 413.082 79.3633 412.769C80.8017 412.206 85.242 412.144 88.4316 412.644C91.9964 413.144 95.6862 414.771 90.8706 414.646Z" fill="#FFE3CA"/>
<path d="M79.6759 412.832C79.6759 412.832 74.5476 414.083 73.672 414.771C73.0466 415.271 70.4199 418.086 70.4199 418.086C70.4199 418.086 72.2961 417.773 73.4219 416.71C74.5476 415.709 79.6759 412.832 79.6759 412.832Z" fill="#FFE3CA"/>
<path d="M117.388 412.832L138.151 401.885C138.151 401.885 138.214 415.146 138.339 420.212C138.464 425.279 140.59 432.41 136.587 433.473C132.585 434.536 130.521 433.973 134.649 436.413C138.776 438.79 137.838 441.292 136.275 443.356C134.711 445.42 141.528 466.436 139.902 467.625C133.46 459.493 126.519 449.423 123.517 442.105C119.702 432.597 118.201 421.714 117.388 412.832Z" fill="#0E538C"/>
<path d="M124.079 407.515L123.266 365.232C123.266 365.232 123.328 352.034 123.578 348.156C123.829 344.153 130.646 348.844 130.646 348.844C130.646 348.844 140.214 361.791 140.402 393.003C140.527 413.895 139.401 424.779 129.77 423.903C120.827 423.09 110.633 421.714 110.633 421.714L106.192 410.142L124.079 407.515Z" fill="#2A94F4"/>
<path d="M121.953 429.845L50.4697 420.9L50.6573 419.399L122.141 428.344L121.953 429.845Z" fill="#D3D3D3"/>
<path d="M90.6208 424.341C90.4957 425.529 89.5576 426.405 88.5569 426.28L51.9085 421.714C50.9079 421.589 49.6571 420.65 48.7815 417.523L34.6475 380.932C34.8351 379.43 36.0233 378.68 37.024 379.055L74.4854 384.935C75.4861 385.31 76.174 386.186 76.5493 387.812L90.6208 424.341Z" fill="#D3D3D3"/>
<path d="M85.9927 425.341L86.3679 425.404L122.141 429.908C120.765 430.47 118.576 430.658 116.137 430.345L86.1803 426.592L85.8051 426.53L55.8484 422.777C53.4093 422.464 51.3455 421.714 50.0947 420.9L85.9927 425.341Z" fill="#D3D3D3"/>
<path d="M124.079 407.515L123.266 365.232C123.266 365.232 123.892 361.666 125.143 358.476C125.455 363.105 127.582 396.444 127.832 400.822C128.144 405.576 132.022 406.076 132.835 407.64C133.711 409.141 132.96 409.454 130.083 408.891C127.269 408.266 128.27 408.766 128.895 410.267C129.52 411.831 127.957 411.393 122.453 409.391C118.451 407.953 110.758 409.391 106.881 410.267L124.079 407.515Z" fill="#0E538C"/>
<path d="M371.238 303.746C364.359 305.56 351.663 311.94 348.974 322.886C344.971 339.336 352.976 363.418 340.343 387.061C336.278 394.567 410.2 404.7 410.2 404.7L424.46 321.635C424.46 321.635 406.636 303.621 403.008 302.37C395.441 299.868 384.997 300.118 371.238 303.746Z" fill="#CCE9FF"/>
<path d="M424.522 321.697C427.086 328.328 433.59 367.796 426.335 377.116C425.522 378.179 430.088 379.868 429.275 384.747C429.15 385.56 427.774 389.501 427.774 389.501L421.895 391.065L409.074 376.24C409.074 376.24 414.265 368.171 421.082 337.585C423.083 328.578 423.959 320.196 424.522 321.697Z" fill="#2A94F4"/>
<path d="M375.991 368.86C375.991 368.86 382.182 385.185 397.129 389.563C399.694 390.314 401.32 393.191 400.069 394.129C398.443 395.318 396.316 395.568 392.564 395.568C384.746 395.568 374.115 393.066 366.797 385.685C355.916 374.802 352.476 369.798 353.602 364.356C354.602 358.789 375.991 368.86 375.991 368.86Z" fill="#FCD2B1"/>
<path d="M351.099 317.381C347.91 322.761 346.096 331.393 346.159 343.777C346.159 353.347 354.164 369.047 355.352 373.863C355.54 374.677 356.04 378.117 356.04 378.117L364.858 387.124L382.557 374.677L377.179 366.107L375.553 366.295C375.553 366.295 374.552 361.541 374.802 359.727C375.052 357.913 369.924 333.206 367.36 317.381C365.921 308.187 354.226 312.065 351.099 317.381Z" fill="#2A94F4"/>
<path d="M366.985 365.92L372.176 364.293L374.302 363.73C374.427 365.232 375.678 366.232 375.678 366.232L371.613 366.733L366.922 368.234L361.419 372.175L366.985 365.92Z" fill="#0E538C"/>
<path d="M396.003 389.501L405.009 386.936C405.009 386.936 407.573 390.502 407.073 391.377C406.572 392.253 407.073 397.507 407.073 397.507L402.695 401.385L399.13 400.134C399.13 400.134 398.88 398.508 400.068 398.383C401.319 398.195 399.255 397.319 398.63 396.944C398.004 396.506 392.813 393.754 396.003 389.501Z" fill="#FCD2B1"/>
<path d="M382.119 302.933C381.119 305.872 382.62 309.188 385.497 310.188L390.625 312.065C393.502 313.128 396.629 311.502 397.629 308.562L402.195 295.051C403.195 292.112 401.694 288.797 398.818 287.733L393.689 285.857C390.812 284.793 387.685 286.42 386.685 289.359L382.119 302.933Z" fill="#FF957E"/>
<path d="M404.508 314.817C404.008 316.756 402.007 317.944 400.13 317.381L384.683 312.94C382.807 312.378 381.681 310.376 382.181 308.374L388.498 284.668C388.998 282.729 391 281.541 392.876 282.104L408.323 286.482C410.199 287.045 411.325 289.047 410.825 291.048L404.508 314.817Z" fill="#FCD2B1"/>
<path d="M412.513 288.671C412.638 288.546 411.075 286.795 411.888 283.355C412.951 278.726 409.511 276.85 406.947 276.787C405.446 276.724 400.381 279.164 397.691 279.977C395.002 280.79 395.252 279.727 390.374 278.851C387.122 278.226 386.372 280.04 385.246 282.542C384.12 285.106 383.995 294.864 383.995 294.864C384.433 295.489 385.121 295.99 385.559 295.489C385.996 294.989 387.748 287.17 389.186 284.856C390.562 282.542 396.19 286.232 399.255 288.046C402.257 289.86 404.946 290.173 409.762 289.172C410.324 289.797 410.825 290.485 410.825 290.798C410.825 291.424 409.449 295.865 409.449 295.865C409.449 295.865 412.138 294.176 412.889 292.862C413.264 292.424 413.389 290.298 412.513 288.671Z" fill="#FFBE55"/>
<path d="M387.06 303.433C386.872 304.059 386.247 304.496 385.621 304.309L382.307 303.37C381.681 303.183 381.306 302.495 381.494 301.869L383.182 295.552C383.37 294.926 383.995 294.488 384.621 294.676L387.935 295.614C388.561 295.802 388.936 296.49 388.748 297.116L387.06 303.433Z" fill="#FCD2B1"/>
<path d="M384.996 297.428C384.996 297.428 382.495 306.748 381.682 309.876C380.931 312.69 380.368 319.195 395.691 323.574C404.759 326.138 406.26 319.133 406.885 316.881C407.323 315.13 406.823 309.438 406.135 308.187C406.135 308.124 405.134 312.065 405.134 312.065C405.134 312.065 404.259 307.749 399.943 306.56C393.001 304.559 390.25 308.374 387.248 307.374C384.871 306.56 384.183 302.057 384.996 297.428Z" fill="#FFBE55"/>
<path d="M395.441 311.752L400.194 313.128C400.819 313.316 401.507 312.94 401.632 312.252L401.82 311.564L394.753 309.563L394.565 310.251C394.44 310.939 394.815 311.564 395.441 311.752Z" fill="#FCD2B1"/>
<path d="M470.8 406.514C468.611 412.832 430.087 436.037 417.141 434.661L378.179 436.6C345.095 432.41 329.397 379.118 329.397 379.118C330.711 365.732 363.357 385.122 374.989 391.127C393.376 400.635 405.071 401.135 405.071 401.135C417.391 402.448 431.65 392.566 447.223 392.253C464.296 391.815 474.303 396.569 470.8 406.514Z" fill="#0B4870"/>
<path d="M386.122 400.134C386.122 400.072 386.122 400.072 386.122 400.134V398.383L453.102 397.132V398.883L452.915 399.196C452.102 400.697 450.538 400.947 448.787 401.01L390.5 402.136C388.749 402.198 387.185 401.948 386.31 400.509L386.122 400.134Z" fill="#D3D3D3"/>
<path d="M402.257 400.072L402.069 400.384C401.819 400.76 401.507 401.072 401.131 401.26L390.937 401.448C389.249 401.51 387.748 401.323 386.872 400.134L386.685 399.884L386.622 399.821V399.008L402.132 398.695L402.257 400.072ZM411.325 399.446L444.784 398.821V397.632L411.263 398.32L411.325 399.446ZM402.632 398.007L410.7 363.73C410.888 362.855 411.763 362.104 412.639 362.042L459.669 361.166C460.544 361.166 461.045 361.854 460.857 362.792L452.789 397.069L402.632 398.007Z" fill="#D3D3D3"/>
<path d="M372.301 445.42C376.929 446.233 380.493 440.666 380.493 440.666L392.501 430.908L389.937 424.278L366.547 435.162C366.547 435.162 367.61 444.607 372.301 445.42Z" fill="#FCD2B1"/>
<path d="M380.431 440.291C380.431 440.291 380.431 440.854 379.555 443.418C378.68 445.983 377.554 446.858 376.428 447.234C371.925 448.61 368.736 447.922 357.979 450.048C347.222 452.175 343.97 450.549 340.843 445.42C337.716 440.291 340.968 436.225 346.222 435.85C353.789 435.287 358.042 436.162 361.982 435.537C366.109 434.912 366.359 433.911 368.798 432.347C371.05 430.908 373.176 439.54 371.05 441.542C369.111 443.293 378.867 443.543 380.431 440.291Z" fill="#FFB750"/>
<path d="M378.179 445.232C373.739 446.608 370.487 445.92 359.73 448.047C348.973 450.174 345.721 448.547 342.594 443.418C341.156 441.041 341.093 438.915 341.906 437.288C339.53 438.977 338.717 441.917 340.843 445.42C343.97 450.549 347.222 452.175 357.979 450.048C368.736 447.922 371.988 448.61 376.428 447.234C377.304 446.984 378.179 446.358 378.93 444.919C378.68 445.044 378.43 445.17 378.179 445.232Z" fill="white"/>
<path d="M380.431 440.478V440.353C380.431 440.416 380.368 440.478 380.306 440.541C380.368 440.478 380.431 440.478 380.431 440.478Z" fill="#E9D6B8"/>
<path d="M357.229 444.294C356.916 444.419 356.603 443.731 356.478 442.793C356.29 440.854 355.853 438.977 355.227 437.038C354.915 436.1 354.915 435.287 355.29 435.162C355.665 435.037 356.29 435.725 356.541 436.663C357.166 438.539 357.541 440.478 357.729 442.355C357.854 443.293 357.541 444.169 357.229 444.294ZM360.543 443.668C360.168 443.731 359.855 443.105 359.73 442.23C359.543 440.416 359.105 438.602 358.479 436.851C358.167 435.975 358.167 435.224 358.604 435.162C358.98 435.099 359.605 435.787 359.918 436.663C360.481 438.414 360.918 440.228 361.106 441.98C361.169 442.855 360.918 443.606 360.543 443.668ZM364.045 443.543C363.67 443.606 363.295 442.918 363.17 441.98C362.857 440.103 362.419 438.289 361.731 436.413C361.419 435.474 361.419 434.724 361.794 434.724C362.232 434.724 362.857 435.412 363.17 436.35C363.858 438.164 364.296 440.041 364.546 441.855C364.671 442.73 364.421 443.481 364.045 443.543Z" fill="white"/>
<path d="M373.113 429.47C373.113 429.47 455.478 394.38 460.169 394.317C476.054 394.192 472.427 410.83 464.359 418.711C454.853 427.969 382.557 444.919 382.557 444.919L373.113 429.47Z" fill="#0E538C"/>
<path d="M405.76 435.6L383.245 413.457L392.876 403.637L417.392 430.408L405.76 435.6Z" fill="#FCD2B1"/>
<path d="M410.388 418.211C410.388 418.211 353.163 363.856 349.349 362.229C336.278 356.725 328.21 371.674 328.648 376.866C329.273 383.559 387.373 437.976 387.373 437.976L410.388 418.211Z" fill="#0E538C"/>
<path d="M444.285 437.288C445.598 438.539 445.848 442.355 445.848 442.355C445.848 442.355 426.773 449.861 420.082 449.986C418.33 450.048 415.203 449.298 412.202 448.422C411.701 448.297 410.513 446.921 410.013 446.796C409.075 446.546 408.887 447.421 408.136 447.171C406.135 446.483 404.634 445.92 404.572 445.795C400.507 436.913 401.882 432.535 401.882 432.535C401.882 432.535 410.638 435.162 409.137 433.098C405.948 428.719 415.141 424.278 417.142 426.592C425.397 435.912 440.407 433.598 444.285 437.288Z" fill="#FFB750"/>
<path d="M445.347 439.165C439.469 441.604 427.148 446.546 424.709 446.733C414.64 447.484 407.636 443.793 402.945 441.604C403.383 442.855 403.883 444.294 404.571 445.795C404.634 445.92 406.072 446.483 408.136 447.171C408.949 447.421 409.137 446.483 410.012 446.796C410.513 446.921 411.638 448.297 412.201 448.422C415.203 449.298 418.33 449.986 420.081 449.986C426.773 449.861 445.848 442.355 445.848 442.355C445.848 442.355 445.848 440.604 445.347 439.165ZM431.901 433.41C432.089 433.786 431.338 434.161 430.275 434.411C428.086 434.849 425.96 435.537 423.834 436.413C422.771 436.851 421.832 436.976 421.707 436.6C421.582 436.225 422.27 435.537 423.333 435.099C425.397 434.223 427.586 433.598 429.712 433.16C430.713 432.847 431.714 433.035 431.901 433.41ZM427.586 431.847C427.774 432.222 427.023 432.722 425.96 433.035C423.834 433.661 421.77 434.536 419.706 435.6C418.705 436.1 417.767 436.288 417.642 435.912C417.517 435.537 418.205 434.724 419.206 434.223C421.207 433.223 423.271 432.347 425.397 431.784C426.46 431.346 427.461 431.471 427.586 431.847ZM423.458 430.471C423.584 430.846 422.896 431.409 421.895 431.784C419.831 432.597 417.83 433.598 415.891 434.786C414.953 435.412 414.077 435.6 413.952 435.162C413.827 434.786 414.453 433.911 415.453 433.285C417.392 432.097 419.393 431.096 421.395 430.345C422.395 430.033 423.333 430.095 423.458 430.471Z" fill="white"/>
</svg>
