<svg width="168" height="46" viewBox="0 0 168 46" fill="none" xmlns="http://www.w3.org/2000/svg">
<g clip-path="url(#clip0_177_4903)">
<path d="M90.5898 22.803L68.1514 0.234253V45.3187L90.5898 22.803Z" fill="white"/>
<path d="M45.7128 22.803L68.1512 0.234253H23.2744L45.7128 22.803Z" fill="white"/>
<path d="M0.783203 22.803L23.2744 45.3187V0.234253L0.783203 22.803Z" fill="white"/>
<path d="M45.7128 22.803L23.2744 45.3187H68.1512L45.7128 22.803Z" fill="white"/>
<path d="M110.283 24.1274H102.152V32.1801H98.0869V13.3199H102.152V21.0547H110.283V13.3199H114.348V32.1801H110.283V24.1274Z" fill="white"/>
<path d="M124.168 32.551C120.103 32.551 116.776 30.9086 116.724 26.4055H120.789C120.842 28.4187 122.003 29.6372 124.221 29.6372C125.857 29.6372 127.758 28.7895 127.758 26.9353C127.758 25.4519 126.491 25.0281 124.379 24.3923L123.006 24.0215C120.05 23.1738 117.093 22.0083 117.093 18.6177C117.093 14.4324 121 13.002 124.537 13.002C128.18 13.002 131.348 14.2735 131.401 18.4588H127.336C127.177 16.7635 126.174 15.7569 124.273 15.7569C122.742 15.7569 121.264 16.5516 121.264 18.2469C121.264 19.6243 122.531 20.0481 125.171 20.8958L126.755 21.3726C129.975 22.3792 132.035 23.4917 132.035 26.6704C131.982 30.9086 127.864 32.551 124.168 32.551Z" fill="white"/>
<path d="M134.305 13.3729H140.851C142.066 13.3199 143.333 13.3729 144.547 13.5848C146.817 14.1146 148.56 15.598 148.56 18.1409C148.56 20.5779 147.029 21.7964 144.811 22.3792C147.345 22.856 149.246 24.1274 149.246 26.9353C149.246 31.2265 145.022 32.1801 141.749 32.1801H134.357L134.305 13.3729ZM140.851 21.2136C142.646 21.2136 144.494 20.8428 144.494 18.6707C144.494 16.7105 142.805 16.1807 141.115 16.1807H138.264V21.2136H140.851ZM141.221 29.3723C143.122 29.3723 144.97 28.9485 144.97 26.6174C144.97 24.2864 143.386 23.8626 141.432 23.8626H138.212V29.3723H141.221Z" fill="white"/>
<path d="M159.805 32.551C153.734 32.551 151.041 28.6836 151.041 22.9089C151.041 17.1343 154.05 12.949 160.016 12.949C163.765 12.949 167.408 14.6443 167.513 18.8826H163.29C163.079 16.9754 161.811 16.0218 160.016 16.0218C156.321 16.0218 155.212 19.9951 155.212 23.0149C155.212 26.0346 156.321 29.5312 159.858 29.5312C161.706 29.5312 163.079 28.5246 163.343 26.6174H167.566C167.144 30.9616 163.712 32.551 159.805 32.551Z" fill="white"/>
</g>
<defs>
<clipPath id="clip0_177_4903">
<rect width="166.783" height="45.0315" fill="white" transform="translate(0.783203 0.234253)"/>
</clipPath>
</defs>
</svg>
