<svg width="580" height="513" viewBox="0 0 580 513" fill="none" xmlns="http://www.w3.org/2000/svg">
<path opacity="0.18" d="M323.252 50.9039C291.394 69.6429 255.357 79.7629 219.87 90.1572C184.383 100.552 148.484 111.495 117.484 131.623C86.4842 151.752 60.5037 182.48 54.4633 218.938C52.2411 232.385 52.7473 246.304 48.8862 259.383C41.3787 284.863 18.7873 303.062 7.70184 327.178C-7.71657 360.54 1.43838 401.294 22.5454 431.388C50.2162 470.787 95.9137 494.774 143.001 504.903C190.089 515.031 238.909 512.622 286.872 508.231C340.472 503.256 394.664 495.624 444.102 474.269C493.541 452.914 538.311 416.285 559.341 366.74C573.164 334.151 582.653 297.624 576.827 262.736C531.49 -8.84658 343.449 39.0344 323.252 50.9039Z" fill="#68E1FD"/>
<path d="M216.781 126.392C215.962 126.351 215.144 126.494 214.387 126.81C213.63 127.126 212.953 127.607 212.406 128.218C211.733 129.146 211.308 130.229 211.17 131.366C210.612 134.76 210.963 138.241 212.187 141.455C213.41 144.67 215.463 147.503 218.137 149.668C219.913 151.065 222.135 152.18 224.366 151.794C224.622 151.773 224.863 151.667 225.053 151.494C225.245 151.232 225.333 150.909 225.302 150.585C225.482 144.582 225.628 138.441 223.32 132.935C221.706 129.102 221.586 126.452 216.781 126.392Z" fill="url(#paint0_linear_177_4952)"/>
<path d="M355.762 126.392C356.583 126.351 357.402 126.494 358.161 126.81C358.919 127.126 359.597 127.607 360.146 128.218C360.811 129.149 361.233 130.231 361.373 131.366C361.933 134.759 361.584 138.24 360.362 141.454C359.14 144.669 357.088 147.503 354.415 149.668C352.639 151.066 350.408 152.18 348.177 151.794C347.922 151.771 347.681 151.665 347.491 151.494C347.302 151.23 347.214 150.908 347.242 150.585C347.062 144.582 346.925 138.441 349.233 132.935C350.837 129.102 350.957 126.452 355.762 126.392Z" fill="url(#paint1_linear_177_4952)"/>
<path d="M546.342 422.957H37.3373C21.8229 422.957 9.24609 435.528 9.24609 451.036V483.685C9.24609 499.193 21.8229 511.764 37.3373 511.764H546.342C561.857 511.764 574.433 499.193 574.433 483.685V451.036C574.433 435.528 561.857 422.957 546.342 422.957Z" fill="#68E1FD"/>
<path d="M546.342 422.957H37.3373C21.8229 422.957 9.24609 435.528 9.24609 451.036V483.685C9.24609 499.193 21.8229 511.764 37.3373 511.764H546.342C561.857 511.764 574.433 499.193 574.433 483.685V451.036C574.433 435.528 561.857 422.957 546.342 422.957Z" fill="url(#paint2_linear_177_4952)"/>
<path d="M226.511 184.195C226.511 184.195 160.444 180.327 131.564 215.576C102.683 250.824 117.741 416.971 117.741 416.971L422.952 423.918L435.376 235.944C436.603 196.296 389.001 184.015 338.799 184.178H336.173C247.807 185.079 226.511 184.195 226.511 184.195Z" fill="#68E1FD"/>
<path d="M226.511 184.195C226.511 184.195 160.444 180.327 131.564 215.576C102.683 250.824 117.741 416.971 117.741 416.971L422.952 423.918L435.376 235.944C436.603 196.296 389.001 184.015 338.798 184.178H336.173C247.807 185.079 226.511 184.195 226.511 184.195Z" fill="url(#paint3_linear_177_4952)"/>
<path d="M173.486 192.051C173.486 192.051 119.123 192.051 67.1792 327.358L133.812 357.581L167.412 315.746L173.486 192.051ZM395.796 192.051C395.796 192.051 450.16 192.051 502.104 327.358L435.471 357.581L401.871 315.746L395.796 192.051Z" fill="#68E1FD"/>
<path opacity="0.24" d="M99.3712 330.308C97.9069 329.635 96.5931 328.674 95.5082 327.482C94.4232 326.291 93.5893 324.893 93.0561 323.373C92.5229 321.852 92.3013 320.24 92.4045 318.632C92.5077 317.024 92.9337 315.454 93.6569 314.014C107.316 286.818 149.144 223.106 177.536 219.349C213.1 214.624 253.641 209.675 253.641 209.675C253.641 209.675 376.834 207.428 397.297 221.682C413.316 232.831 449.636 280.412 469.422 306.818C473.995 312.933 472.287 324.151 465.355 327.401L416.448 367.032C414.845 367.779 413.425 368.868 412.287 370.222L379.468 409.433C378.275 410.859 376.766 411.989 375.061 412.733C373.356 413.477 371.502 413.815 369.644 413.721L197.296 405.222C194.922 405.109 192.636 404.295 190.725 402.883C188.814 401.471 187.366 399.524 186.562 397.289L166.141 340.634C165.366 338.455 163.977 336.546 162.142 335.136C160.307 333.727 158.104 332.878 155.798 332.69C153.491 332.503 151.179 332.985 149.141 334.079C147.102 335.174 145.423 336.833 144.305 338.859C142.829 341.517 140.399 343.517 137.506 344.455C134.612 345.392 131.471 345.198 128.715 343.91L99.3712 330.308Z" fill="black"/>
<path d="M551.636 406.036H42.6312C27.1169 406.036 14.54 418.607 14.54 434.115V466.764C14.54 482.272 27.1169 494.843 42.6312 494.843H551.636C567.151 494.843 579.727 482.272 579.727 466.764V434.115C579.727 418.607 567.151 406.036 551.636 406.036Z" fill="#68E1FD"/>
<path opacity="0.18" d="M57.0202 438.103C59.1566 439.441 61.6792 439.501 64.0902 439.544L108.604 440.178C105.604 441.807 102.808 443.785 100.272 446.07C90.4053 454.938 96.3341 471.284 109.599 471.739C210.372 475.169 311.231 473.977 412.03 472.785C427.766 472.596 443.562 472.408 459.22 470.804C461.475 470.58 463.631 469.766 465.47 468.442C467.309 467.118 468.766 465.333 469.693 463.266C470.621 461.199 470.985 458.924 470.751 456.671C470.516 454.418 469.691 452.267 468.358 450.435C468.041 449.623 467.915 448.749 467.989 447.881C468.064 447.012 468.338 446.172 468.789 445.426C469.24 444.68 469.857 444.048 470.591 443.578C471.326 443.108 472.159 442.814 473.026 442.717C489.482 440.804 506.488 441.413 522.79 438.626C526.008 438.077 529.766 437.065 531.07 433.48C531.928 431.259 531.439 428.678 530.735 426.405C527.432 415.83 518.843 408.583 509.757 405.342C500.671 402.1 491.009 402.271 481.528 402.46L108.93 409.947C96.0596 410.204 75.3387 405.659 63.2665 411.156C55.7074 414.613 46.2779 431.388 57.0202 438.103Z" fill="#1D2741"/>
<path d="M136.378 452.073L123.035 415.093C123.035 415.093 117.579 408.798 132.13 406.002C146.682 403.206 428.246 406.002 428.246 406.002L434.801 452.039L136.378 452.073Z" fill="url(#paint4_linear_177_4952)"/>
<path d="M434.801 452.073V455.881C434.801 458.925 433.592 461.843 431.439 463.995C429.286 466.147 426.366 467.356 423.321 467.356H147.9C144.855 467.356 141.935 466.147 139.782 463.995C137.629 461.843 136.42 458.925 136.42 455.881V452.073C136.415 450.565 136.709 449.07 137.284 447.676C137.86 446.281 138.705 445.013 139.772 443.946C140.839 442.879 142.106 442.033 143.501 441.457C144.896 440.881 146.391 440.586 147.9 440.59H423.321C424.83 440.586 426.325 440.881 427.72 441.457C429.115 442.033 430.382 442.879 431.449 443.946C432.516 445.013 433.361 446.281 433.936 447.676C434.512 449.07 434.806 450.565 434.801 452.073Z" fill="url(#paint5_linear_177_4952)"/>
<path d="M434.32 448.754C433.605 451.113 432.149 453.179 430.168 454.648C428.188 456.117 425.787 456.91 423.321 456.91H147.9C145.434 456.91 143.033 456.117 141.053 454.648C139.072 453.179 137.616 451.113 136.9 448.754C137.615 446.394 139.07 444.326 141.051 442.856C143.031 441.385 145.433 440.591 147.9 440.59H423.321C425.788 440.591 428.189 441.385 430.17 442.856C432.151 444.326 433.606 446.394 434.32 448.754Z" fill="#68E1FD"/>
<path d="M136.378 452.073L123.035 415.093C123.035 415.093 117.579 408.798 132.13 406.002C146.682 403.206 428.246 406.002 428.246 406.002L434.801 452.039L136.378 452.073Z" fill="url(#paint6_linear_177_4952)"/>
<path d="M434.32 448.754C433.605 451.113 432.149 453.179 430.168 454.648C428.187 456.117 425.787 456.91 423.321 456.91H147.9C145.434 456.91 143.033 456.117 141.053 454.648C139.072 453.179 137.616 451.113 136.9 448.754C137.615 446.394 139.07 444.326 141.051 442.856C143.031 441.385 145.433 440.591 147.9 440.59L428.289 435.942C433.437 435.942 432.888 444.029 434.32 448.754Z" fill="url(#paint7_linear_177_4952)"/>
<path d="M428.246 265.198V423.918C428.246 428.339 426.489 432.58 423.361 435.707C420.233 438.833 415.99 440.59 411.566 440.59H159.612C157.421 440.592 155.251 440.162 153.227 439.325C151.202 438.488 149.362 437.26 147.813 435.712C146.264 434.163 145.035 432.324 144.198 430.301C143.36 428.277 142.93 426.108 142.933 423.918V265.198C142.933 260.776 144.69 256.535 147.818 253.409C150.946 250.282 155.189 248.526 159.612 248.526H411.566C413.758 248.523 415.927 248.953 417.952 249.79C419.977 250.627 421.817 251.855 423.366 253.404C424.915 254.952 426.144 256.791 426.981 258.815C427.819 260.839 428.248 263.008 428.246 265.198Z" fill="#68E1FD"/>
<path d="M428.246 265.198V423.918C428.246 428.339 426.489 432.58 423.361 435.707C420.233 438.833 415.99 440.59 411.566 440.59H159.612C157.421 440.592 155.251 440.162 153.227 439.325C151.202 438.488 149.362 437.26 147.813 435.712C146.264 434.163 145.035 432.324 144.198 430.301C143.36 428.277 142.93 426.108 142.933 423.918V265.198C142.933 260.776 144.69 256.535 147.818 253.409C150.946 250.282 155.189 248.526 159.612 248.526H411.566C413.758 248.523 415.928 248.953 417.952 249.79C419.977 250.627 421.817 251.855 423.366 253.404C424.915 254.952 426.144 256.791 426.981 258.815C427.819 260.839 428.248 263.008 428.246 265.198Z" fill="url(#paint8_linear_177_4952)"/>
<path d="M428.246 265.198V423.926C428.248 426.628 427.591 429.29 426.333 431.681C425.074 434.072 423.251 436.12 421.021 437.648C420.979 437.684 420.933 437.716 420.884 437.743C418.39 439.437 415.479 440.413 412.467 440.564H159.603C157.156 440.564 154.738 440.022 152.525 438.978C151.476 436.763 150.934 434.343 150.938 431.894V273.199C150.938 268.778 152.695 264.537 155.823 261.41C158.951 258.284 163.193 256.527 167.617 256.527H419.571C422.021 256.523 424.442 257.062 426.659 258.105C427.708 260.322 428.251 262.745 428.246 265.198Z" fill="#68E1FD"/>
<path d="M80.1179 333.224C80.1179 333.224 51.1258 382.212 54.8581 400.865C58.5905 419.518 142.933 412.803 142.933 412.803V368.027H125.043L133.812 357.581L80.1179 333.224Z" fill="url(#paint9_linear_177_4952)"/>
<path d="M489.165 333.224C489.165 333.224 514.047 388.181 514.776 399.373C515.506 410.565 509.817 415.153 486.917 418.086C464.016 421.019 428.246 418.086 428.246 418.086V362.778L440.696 362.032L435.471 357.555L489.165 333.224Z" fill="url(#paint10_linear_177_4952)"/>
<path d="M253.607 200.55C253.607 200.55 252.801 219.495 268.811 231.425C284.822 243.354 303.132 231.811 307.585 223.972C312.038 216.133 318.653 197.077 318.653 197.077L253.607 200.55Z" fill="url(#paint11_linear_177_4952)"/>
<path d="M219.493 122.644C219.493 122.644 225.19 195.387 268.82 208.466C312.45 221.545 349.052 175.576 352.759 122.644C356.465 69.7116 321.87 21.7105 275.366 31.5131C228.862 41.3157 213.152 90.6804 219.493 122.644Z" fill="url(#paint12_linear_177_4952)"/>
<path d="M372.381 86.1435C373.402 89.9342 372.381 93.9478 371.145 97.6699C366.759 110.948 359.816 123.24 350.708 133.853C350.948 132.395 351.154 130.92 351.317 129.453C352.662 117.796 351.851 105.99 348.923 94.6253C342.351 91.7695 335.401 99.7711 328.331 98.5275C322.033 97.4555 319.142 89.9513 313.573 86.7867C308.005 83.6221 300.703 85.6804 295.203 89.0251C289.703 92.3698 284.795 96.9409 278.755 99.2479C264.924 104.505 249.909 96.555 237.262 88.8707L234.817 97.507H234.079L232.577 97.567C229.892 97.6776 227.306 98.6108 225.17 100.24C223.033 101.869 221.45 104.116 220.634 106.675C217.862 115.251 219.467 122.575 220.848 133.021C220.951 133.793 221.509 137.309 221.766 138.064C213.186 124.016 204.374 104.617 208.038 88.6134C208.744 86.0721 209.317 83.4958 209.754 80.8948C210.192 77.2499 209.582 73.5707 209.368 69.9087C208.845 61.058 210.964 51.5642 217.322 45.3722C232.414 30.7068 244.778 10.6814 264.727 3.95761C274.746 0.643442 285.333 -0.609198 295.85 0.275148C306.366 1.15949 316.595 4.16252 325.92 9.10334C335.358 14.1633 343.586 21.11 351.763 27.971C357.992 33.2454 364.281 38.5969 368.614 45.4579C372.947 52.3189 375.127 60.9894 372.364 68.6137C371.248 71.7011 369.335 74.6856 369.558 77.9532C369.756 80.8091 371.617 83.3305 372.381 86.1435Z" fill="#3F3D56"/>
<path opacity="0.24" d="M360.009 112.635C357.512 118.407 354.904 124.333 351.317 129.453C352.663 117.796 351.851 105.99 348.924 94.6254C342.351 91.7696 335.401 99.7712 328.331 98.5276C322.034 97.4556 319.142 89.9514 313.574 86.7868C308.005 83.6221 300.704 85.6804 295.204 89.0252C289.704 92.3699 284.796 96.941 278.756 99.248C265.028 104.471 250.107 96.6751 237.52 89.0252C236.893 83.4592 249.197 78.3478 269.678 86.3065C286.478 92.8416 301.424 62.4303 323.046 70.7235C325.509 71.6755 326.821 74.5485 329.284 75.5176C332.716 76.8555 336.482 75.7921 340.103 75.2775C343.724 74.7629 348.066 75.1832 349.996 78.2963C351.472 80.6805 350.948 83.7594 351.618 86.4866C352.287 89.2138 355.702 91.7438 357.701 89.7799C358.412 94.0748 358.646 98.4352 358.396 102.781C359.646 101.178 361.285 99.9203 363.158 99.1279C363.767 103.776 361.871 108.339 360.009 112.635ZM224.152 97.9273C219.055 108.596 218.729 126.683 221.784 138.09C219.51 132.532 214.971 121.795 213.633 115.903C212.483 110.903 211.822 105.183 214.851 101.032C215.666 100.126 216.367 99.1241 216.936 98.0473C217.221 97.1562 217.402 96.2354 217.477 95.303C217.949 92.2755 220.137 89.0252 223.2 89.1795C224.44 89.3345 225.62 89.8006 226.632 90.5346C228.476 91.7095 233.77 94.7626 234.105 97.5328L224.152 97.9273Z" fill="black"/>
<path d="M427.937 423.926C427.937 423.926 427.079 432.863 420.713 437.648C420.671 437.684 420.625 437.716 420.576 437.743C418.123 439.518 415.186 440.502 412.158 440.564H159.295C156.844 440.563 154.424 440.021 152.208 438.978C151.165 436.761 150.626 434.342 150.629 431.894V348.558L427.937 423.926Z" fill="url(#paint13_linear_177_4952)"/>
<path opacity="0.24" d="M176.592 438.249H152.568L150.98 415.307V273.199C150.98 268.778 152.738 264.537 155.866 261.41C158.994 258.284 163.236 256.527 167.66 256.527H228.862C228.862 256.527 164.58 256.75 161.62 271.012C158.66 285.275 161.62 428.472 161.62 428.472C161.62 428.472 158.642 436.019 176.592 438.249Z" fill="black"/>
<defs>
<linearGradient id="paint0_linear_177_4952" x1="222.264" y1="138.759" x2="211.539" y2="140.535" gradientUnits="userSpaceOnUse">
<stop stop-color="#ECC4D7"/>
<stop offset="0.16" stop-color="#EDCBD5"/>
<stop offset="0.42" stop-color="#EFD4D1"/>
<stop offset="0.7" stop-color="#F2EAC9"/>
</linearGradient>
<linearGradient id="paint1_linear_177_4952" x1="350.279" y1="138.759" x2="361.013" y2="140.535" gradientUnits="userSpaceOnUse">
<stop stop-color="#ECC4D7"/>
<stop offset="0.16" stop-color="#EDCBD5"/>
<stop offset="0.42" stop-color="#EFD4D1"/>
<stop offset="0.7" stop-color="#F2EAC9"/>
</linearGradient>
<linearGradient id="paint2_linear_177_4952" x1="291.754" y1="458.385" x2="293.468" y2="637.731" gradientUnits="userSpaceOnUse">
<stop offset="0.01" stop-opacity="0"/>
<stop offset="0.26" stop-color="#0D0D12" stop-opacity="0.21"/>
<stop offset="0.77" stop-color="#2F2E40" stop-opacity="0.75"/>
<stop offset="0.99" stop-color="#3F3D56"/>
</linearGradient>
<linearGradient id="paint3_linear_177_4952" x1="274.808" y1="268.242" x2="288.01" y2="-20.2107" gradientUnits="userSpaceOnUse">
<stop offset="0.01" stop-opacity="0"/>
<stop offset="0.26" stop-color="#0D0D12" stop-opacity="0.21"/>
<stop offset="0.77" stop-color="#2F2E40" stop-opacity="0.75"/>
<stop offset="0.99" stop-color="#3F3D56"/>
</linearGradient>
<linearGradient id="paint4_linear_177_4952" x1="122.032" y1="428.429" x2="434.801" y2="428.429" gradientUnits="userSpaceOnUse">
<stop offset="0.01" stop-opacity="0"/>
<stop offset="0.26" stop-color="#0D0D12" stop-opacity="0.21"/>
<stop offset="0.77" stop-color="#2F2E40" stop-opacity="0.75"/>
<stop offset="0.99" stop-color="#3F3D56"/>
</linearGradient>
<linearGradient id="paint5_linear_177_4952" x1="283.131" y1="498.745" x2="286.337" y2="440.281" gradientUnits="userSpaceOnUse">
<stop stop-color="#68E1FD"/>
<stop offset="1" stop-color="#69B9EB"/>
</linearGradient>
<linearGradient id="paint6_linear_177_4952" x1="278.326" y1="453.411" x2="278.815" y2="339.228" gradientUnits="userSpaceOnUse">
<stop offset="0.01" stop-opacity="0"/>
<stop offset="0.26" stop-color="#0D0D12" stop-opacity="0.21"/>
<stop offset="0.77" stop-color="#2F2E40" stop-opacity="0.75"/>
<stop offset="0.99" stop-color="#3F3D56"/>
</linearGradient>
<linearGradient id="paint7_linear_177_4952" x1="378.902" y1="415.016" x2="15.6502" y2="546.456" gradientUnits="userSpaceOnUse">
<stop offset="0.01" stop-opacity="0"/>
<stop offset="0.26" stop-color="#0D0D12" stop-opacity="0.21"/>
<stop offset="0.77" stop-color="#2F2E40" stop-opacity="0.75"/>
<stop offset="0.99" stop-color="#3F3D56"/>
</linearGradient>
<linearGradient id="paint8_linear_177_4952" x1="280.531" y1="206.202" x2="290.167" y2="470.049" gradientUnits="userSpaceOnUse">
<stop offset="0.01" stop-opacity="0"/>
<stop offset="0.26" stop-color="#0D0D12" stop-opacity="0.21"/>
<stop offset="0.77" stop-color="#2F2E40" stop-opacity="0.75"/>
<stop offset="0.99" stop-color="#3F3D56"/>
</linearGradient>
<linearGradient id="paint9_linear_177_4952" x1="91.3578" y1="527.673" x2="112.249" y2="178.414" gradientUnits="userSpaceOnUse">
<stop stop-color="#ECC4D7"/>
<stop offset="0.16" stop-color="#EDCBD5"/>
<stop offset="0.42" stop-color="#EFD4D1"/>
<stop offset="0.7" stop-color="#F2EAC9"/>
</linearGradient>
<linearGradient id="paint10_linear_177_4952" x1="457.787" y1="612.088" x2="481.053" y2="223.139" gradientUnits="userSpaceOnUse">
<stop stop-color="#ECC4D7"/>
<stop offset="0.16" stop-color="#EDCBD5"/>
<stop offset="0.42" stop-color="#EFD4D1"/>
<stop offset="0.7" stop-color="#F2EAC9"/>
</linearGradient>
<linearGradient id="paint11_linear_177_4952" x1="281.664" y1="273.405" x2="292.594" y2="90.6112" gradientUnits="userSpaceOnUse">
<stop stop-color="#ECC4D7"/>
<stop offset="0.16" stop-color="#EDCBD5"/>
<stop offset="0.42" stop-color="#EFD4D1"/>
<stop offset="0.7" stop-color="#F2EAC9"/>
</linearGradient>
<linearGradient id="paint12_linear_177_4952" x1="286.675" y1="4.66098" x2="283.692" y2="298.697" gradientUnits="userSpaceOnUse">
<stop stop-color="#ECC4D7"/>
<stop offset="0.16" stop-color="#EDCBD5"/>
<stop offset="0.42" stop-color="#EFD4D1"/>
<stop offset="0.7" stop-color="#F2EAC9"/>
</linearGradient>
<linearGradient id="paint13_linear_177_4952" x1="301.982" y1="294.005" x2="218.22" y2="903.158" gradientUnits="userSpaceOnUse">
<stop offset="0.01" stop-opacity="0"/>
<stop offset="0.26" stop-color="#0D0D12" stop-opacity="0.21"/>
<stop offset="0.77" stop-color="#2F2E40" stop-opacity="0.75"/>
<stop offset="0.99" stop-color="#3F3D56"/>
</linearGradient>
</defs>
</svg>
