<svg width="69" height="66" viewBox="0 0 69 66" fill="none" xmlns="http://www.w3.org/2000/svg">
<path d="M67.9659 24.5915C67.7512 23.9697 67.3608 23.4235 66.8419 23.0193C66.3229 22.615 65.6979 22.37 65.0425 22.3139L45.7 19.4924L37.0316 1.91762C36.7532 1.34289 36.3186 0.85818 35.7775 0.519029C35.2364 0.179878 34.6107 0 33.9721 0C33.3335 0 32.7079 0.179878 32.1668 0.519029C31.6257 0.85818 31.1911 1.34289 30.9127 1.91762L22.2443 19.4584L2.90181 22.3139C2.27266 22.4033 1.68118 22.6673 1.19447 23.0759C0.707771 23.4845 0.345342 24.0213 0.148314 24.6255C-0.03204 25.2159 -0.0482246 25.8442 0.101497 26.4431C0.251219 27.042 0.561195 27.5888 0.998159 28.0249L15.0376 41.6224L11.6382 60.9308C11.501 61.5714 11.5517 62.2379 11.7843 62.8503C12.017 63.4626 12.4216 63.9947 12.9495 64.3826C13.4774 64.7704 14.1061 64.9975 14.76 65.0364C15.4139 65.0754 16.0651 64.9246 16.6353 64.6022L33.9721 55.5258L51.309 64.6022C51.7861 64.8713 52.3249 65.0119 52.8727 65.0101C53.5928 65.0127 54.2951 64.7865 54.8783 64.3642C55.4057 63.9864 55.814 63.4656 56.0549 62.8632C56.2959 62.2609 56.3594 61.6021 56.2381 60.9648L52.8387 41.6564L66.8781 28.0588C67.3689 27.643 67.7317 27.0965 67.9242 26.4827C68.1168 25.8689 68.1312 25.2131 67.9659 24.5915ZM47.0597 38.189C46.6663 38.5711 46.3711 39.0427 46.1995 39.5637C46.0278 40.0846 45.9847 40.6393 46.0739 41.1805L48.5215 55.4578L35.7398 48.6591C35.2431 48.4133 34.6963 48.2855 34.1421 48.2855C33.5879 48.2855 33.0411 48.4133 32.5444 48.6591L19.7627 55.4578L22.2103 41.1805C22.2995 40.6393 22.2564 40.0846 22.0847 39.5637C21.9131 39.0427 21.6179 38.5711 21.2245 38.189L11.0263 27.9909L25.3377 25.9172C25.8884 25.8406 26.4119 25.6301 26.8623 25.3042C27.3128 24.9782 27.6763 24.5467 27.9212 24.0476L33.9721 11.0959L40.363 24.0816C40.6079 24.5807 40.9715 25.0122 41.4219 25.3382C41.8723 25.6641 42.3958 25.8746 42.9465 25.9512L57.2579 28.0249L47.0597 38.189Z" fill="#C69862"/>
</svg>
