<svg width="167" height="80" viewBox="0 0 167 80" fill="none" xmlns="http://www.w3.org/2000/svg">
<path fill-rule="evenodd" clip-rule="evenodd" d="M147.539 40.5182C147.539 31.3712 143.12 24.1537 134.674 24.1537C126.192 24.1537 121.061 31.3712 121.061 40.4468C121.061 51.2016 127.119 56.6326 135.814 56.6326C140.055 56.6326 143.263 55.6679 145.686 54.3101V47.1641C143.263 48.3789 140.483 49.1292 136.955 49.1292C133.498 49.1292 130.433 47.9144 130.041 43.6982H147.468C147.468 43.2337 147.539 41.3757 147.539 40.5182ZM129.934 37.1238C129.934 33.0863 132.393 31.407 134.638 31.407C136.812 31.407 139.129 33.0863 139.129 37.1238H129.934Z" fill="white"/>
<path fill-rule="evenodd" clip-rule="evenodd" d="M107.304 24.1537C103.812 24.1537 101.566 25.7973 100.319 26.9407L99.8559 24.7254H92.0156V66.387L100.925 64.4933L100.961 54.3816C102.244 55.3106 104.132 56.6326 107.268 56.6326C113.648 56.6326 119.456 51.4874 119.456 40.1609C119.421 29.7991 113.541 24.1537 107.304 24.1537ZM105.166 48.7719C103.063 48.7719 101.816 48.0216 100.961 47.0926L100.925 33.8366C101.852 32.8005 103.135 32.0859 105.166 32.0859C108.409 32.0859 110.654 35.7303 110.654 40.411C110.654 45.1989 108.444 48.7719 105.166 48.7719Z" fill="white"/>
<path fill-rule="evenodd" clip-rule="evenodd" d="M79.7568 22.0456L88.7018 20.1162V12.8629L79.7568 14.7566V22.0456Z" fill="white"/>
<path d="M88.7018 24.7611H79.7568V56.0252H88.7018V24.7611Z" fill="white"/>
<path fill-rule="evenodd" clip-rule="evenodd" d="M70.1702 27.4052L69.6 24.7611H61.9023V56.0252H70.8117V34.8371C72.9143 32.0859 76.4781 32.5861 77.5828 32.9791V24.7611C76.4424 24.3324 72.2728 23.5463 70.1702 27.4052Z" fill="white"/>
<path fill-rule="evenodd" clip-rule="evenodd" d="M52.3513 17.0076L43.6558 18.8656L43.6201 47.4856C43.6201 52.7737 47.5759 56.6683 52.8502 56.6683C55.7725 56.6683 57.9107 56.1324 59.0868 55.4892V48.2359C57.9464 48.7004 52.3157 50.344 52.3157 45.0559V32.3717H59.0868V24.7611H52.3157L52.3513 17.0076Z" fill="white"/>
<path fill-rule="evenodd" clip-rule="evenodd" d="M28.2604 33.8366C28.2604 32.4432 29.4008 31.9072 31.2896 31.9072C33.998 31.9072 37.4192 32.729 40.1277 34.1939V25.7973C37.1698 24.6182 34.2475 24.1537 31.2896 24.1537C24.0552 24.1537 19.2441 27.9411 19.2441 34.2654C19.2441 44.127 32.7864 42.5548 32.7864 46.8068C32.7864 48.4503 31.3609 48.9863 29.3652 48.9863C26.4073 48.9863 22.6297 47.7715 19.6362 46.1279V54.6317C22.9504 56.0609 26.3004 56.6683 29.3652 56.6683C36.7778 56.6683 41.8739 52.9881 41.8739 46.5924C41.8383 35.9447 28.2604 37.8384 28.2604 33.8366Z" fill="white"/>
</svg>
