<svg width="168" height="38" viewBox="0 0 168 38" fill="none" xmlns="http://www.w3.org/2000/svg">
<g clip-path="url(#clip0_177_4942)">
<path d="M164.014 0.282261L154.925 19.7694L151.49 12.3749H147.776L153.417 24.4668H156.418L167.699 0.282261H164.014Z" fill="#D72624"/>
<path d="M67.4176 3.8107H74.8066V10.3512H67.4176V3.8107ZM9.29345 36.4647H17.0116L25.3895 12.3749H18.0005L13.294 27.8544H13.1999L8.49341 12.3749H0.916016L9.29345 36.4647ZM36.4022 16.9384C38.9905 16.9384 40.779 18.868 41.0614 21.6908H31.2252C31.7901 18.8204 33.3428 16.9384 36.4022 16.9384ZM36.7788 31.8542C33.5313 31.8542 31.5549 29.7365 31.178 26.4907H48.5448C48.5918 21.3142 47.2267 17.1738 44.3558 14.586C42.3324 12.704 39.6494 11.6688 36.2608 11.6688C29.0134 11.6688 23.9773 17.1738 23.9773 24.3726C23.9773 31.6185 28.7779 37.1705 36.7318 37.1705C39.744 37.1705 42.1441 36.3706 44.1208 35.0058C46.2389 33.5481 47.7446 31.4302 48.168 29.3133H41.1086C40.4029 30.9129 38.9436 31.8542 36.7788 31.8542ZM50.2861 36.4647H57.6281V25.4083C57.6281 20.3734 60.6403 18.1618 65.2526 18.7738H65.3937V12.422C65.0171 12.2808 64.5938 12.2337 63.888 12.2337C61.0169 12.2337 59.0874 13.5509 57.4398 16.3739H57.2984V12.3749H50.2861V36.4647ZM67.4176 36.4647H74.8066V12.3749H67.4176V36.4647ZM76.8316 36.4647H97.4456V30.678H85.774V30.5362L96.9282 18.0206V12.3749H76.8316V18.1618H88.1271V18.3031L76.8316 30.9129V36.4647ZM110.483 31.8067C106.999 31.8067 105.164 28.8901 105.164 24.4668C105.164 19.9968 106.999 17.1267 110.483 17.1267C113.965 17.1267 115.895 19.9968 115.895 24.4668C115.895 28.8901 113.965 31.8067 110.483 31.8067ZM110.53 11.716C102.858 11.716 97.7283 17.2208 97.7283 24.4668C97.7283 31.666 102.858 37.218 110.53 37.218C118.201 37.218 123.331 31.666 123.331 24.4668C123.331 17.2208 118.201 11.716 110.53 11.716ZM124.931 36.4647H132.273V23.0555C132.273 19.9968 134.062 17.8323 136.697 17.8323C139.239 17.8323 140.557 19.6207 140.557 22.1615V36.4647H147.899V20.7502C147.899 15.4329 144.699 11.6688 139.521 11.6688C136.227 11.6688 133.921 13.0806 132.179 15.6683H132.038V12.3749H124.931V36.4647Z" fill="white"/>
</g>
<defs>
<clipPath id="clip0_177_4942">
<rect width="166.783" height="36.936" fill="white" transform="translate(0.916016 0.281982)"/>
</clipPath>
</defs>
</svg>
